<svg width="96" height="43" viewBox="0 0 96 43" fill="none" xmlns="http://www.w3.org/2000/svg">
<g id="comment">
<g id="Union" filter="url(#filter0_d_130_338)">
<path fill-rule="evenodd" clip-rule="evenodd" d="M12 10.4813L0 0H16C16 0 16 0 16 0H92C94.2091 0 96 1.79086 96 4V39C96 41.2091 94.2091 43 92 43H16C13.7909 43 12 41.2091 12 39V10.4813Z" fill="white"/>
</g>
<path id="Josep Ukara" d="M27.02 8.98V13.76C27.02 14.5 26.81 15.07 26.39 15.47C25.9767 15.87 25.4167 16.07 24.71 16.07C23.97 16.07 23.3767 15.86 22.93 15.44C22.4833 15.02 22.26 14.4233 22.26 13.65H23.96C23.96 13.9433 24.02 14.1667 24.14 14.32C24.26 14.4667 24.4333 14.54 24.66 14.54C24.8667 14.54 25.0267 14.4733 25.14 14.34C25.2533 14.2067 25.31 14.0133 25.31 13.76V8.98H27.02ZM30.9413 16.08C30.3946 16.08 29.9013 15.9633 29.4613 15.73C29.0279 15.4967 28.6846 15.1633 28.4313 14.73C28.1846 14.2967 28.0613 13.79 28.0613 13.21C28.0613 12.6367 28.1879 12.1333 28.4412 11.7C28.6946 11.26 29.0413 10.9233 29.4813 10.69C29.9213 10.4567 30.4146 10.34 30.9613 10.34C31.5079 10.34 32.0013 10.4567 32.4413 10.69C32.8813 10.9233 33.2279 11.26 33.4813 11.7C33.7346 12.1333 33.8613 12.6367 33.8613 13.21C33.8613 13.7833 33.7313 14.29 33.4713 14.73C33.2179 15.1633 32.8679 15.4967 32.4213 15.73C31.9813 15.9633 31.4879 16.08 30.9413 16.08ZM30.9413 14.6C31.2679 14.6 31.5446 14.48 31.7713 14.24C32.0046 14 32.1213 13.6567 32.1213 13.21C32.1213 12.7633 32.0079 12.42 31.7813 12.18C31.5613 11.94 31.2879 11.82 30.9613 11.82C30.6279 11.82 30.3513 11.94 30.1313 12.18C29.9113 12.4133 29.8013 12.7567 29.8013 13.21C29.8013 13.6567 29.9079 14 30.1213 14.24C30.3413 14.48 30.6146 14.6 30.9413 14.6ZM37.0384 16.08C36.5518 16.08 36.1184 15.9967 35.7384 15.83C35.3584 15.6633 35.0584 15.4367 34.8384 15.15C34.6184 14.8567 34.4951 14.53 34.4684 14.17H36.1584C36.1784 14.3633 36.2684 14.52 36.4284 14.64C36.5884 14.76 36.7851 14.82 37.0184 14.82C37.2318 14.82 37.3951 14.78 37.5084 14.7C37.6284 14.6133 37.6884 14.5033 37.6884 14.37C37.6884 14.21 37.6051 14.0933 37.4384 14.02C37.2718 13.94 37.0018 13.8533 36.6284 13.76C36.2284 13.6667 35.8951 13.57 35.6284 13.47C35.3618 13.3633 35.1318 13.2 34.9384 12.98C34.7451 12.7533 34.6484 12.45 34.6484 12.07C34.6484 11.75 34.7351 11.46 34.9084 11.2C35.0884 10.9333 35.3484 10.7233 35.6884 10.57C36.0351 10.4167 36.4451 10.34 36.9184 10.34C37.6184 10.34 38.1684 10.5133 38.5684 10.86C38.9751 11.2067 39.2084 11.6667 39.2684 12.24H37.6884C37.6618 12.0467 37.5751 11.8933 37.4284 11.78C37.2884 11.6667 37.1018 11.61 36.8684 11.61C36.6684 11.61 36.5151 11.65 36.4084 11.73C36.3018 11.8033 36.2484 11.9067 36.2484 12.04C36.2484 12.2 36.3318 12.32 36.4984 12.4C36.6718 12.48 36.9384 12.56 37.2984 12.64C37.7118 12.7467 38.0484 12.8533 38.3084 12.96C38.5684 13.06 38.7951 13.2267 38.9884 13.46C39.1884 13.6867 39.2918 13.9933 39.2984 14.38C39.2984 14.7067 39.2051 15 39.0184 15.26C38.8384 15.5133 38.5751 15.7133 38.2284 15.86C37.8884 16.0067 37.4918 16.08 37.0384 16.08ZM45.6046 13.12C45.6046 13.28 45.5946 13.4467 45.5746 13.62H41.7046C41.7313 13.9667 41.8413 14.2333 42.0346 14.42C42.2346 14.6 42.4779 14.69 42.7646 14.69C43.1913 14.69 43.4879 14.51 43.6546 14.15H45.4746C45.3813 14.5167 45.2113 14.8467 44.9646 15.14C44.7246 15.4333 44.4213 15.6633 44.0546 15.83C43.6879 15.9967 43.2779 16.08 42.8246 16.08C42.2779 16.08 41.7913 15.9633 41.3646 15.73C40.9379 15.4967 40.6046 15.1633 40.3646 14.73C40.1246 14.2967 40.0046 13.79 40.0046 13.21C40.0046 12.63 40.1213 12.1233 40.3546 11.69C40.5946 11.2567 40.9279 10.9233 41.3546 10.69C41.7813 10.4567 42.2713 10.34 42.8246 10.34C43.3646 10.34 43.8446 10.4533 44.2646 10.68C44.6846 10.9067 45.0113 11.23 45.2446 11.65C45.4846 12.07 45.6046 12.56 45.6046 13.12ZM43.8546 12.67C43.8546 12.3767 43.7546 12.1433 43.5546 11.97C43.3546 11.7967 43.1046 11.71 42.8046 11.71C42.5179 11.71 42.2746 11.7933 42.0746 11.96C41.8813 12.1267 41.7613 12.3633 41.7146 12.67H43.8546ZM48.2167 11.21C48.3834 10.95 48.6134 10.74 48.9067 10.58C49.2001 10.42 49.5434 10.34 49.9367 10.34C50.3967 10.34 50.8134 10.4567 51.1867 10.69C51.5601 10.9233 51.8534 11.2567 52.0667 11.69C52.2867 12.1233 52.3967 12.6267 52.3967 13.2C52.3967 13.7733 52.2867 14.28 52.0667 14.72C51.8534 15.1533 51.5601 15.49 51.1867 15.73C50.8134 15.9633 50.3967 16.08 49.9367 16.08C49.5501 16.08 49.2067 16 48.9067 15.84C48.6134 15.68 48.3834 15.4733 48.2167 15.22V18.66H46.5067V10.42H48.2167V11.21ZM50.6567 13.2C50.6567 12.7733 50.5367 12.44 50.2967 12.2C50.0634 11.9533 49.7734 11.83 49.4267 11.83C49.0867 11.83 48.7967 11.9533 48.5567 12.2C48.3234 12.4467 48.2067 12.7833 48.2067 13.21C48.2067 13.6367 48.3234 13.9733 48.5567 14.22C48.7967 14.4667 49.0867 14.59 49.4267 14.59C49.7667 14.59 50.0567 14.4667 50.2967 14.22C50.5367 13.9667 50.6567 13.6267 50.6567 13.2ZM57.093 8.98V13.18C57.093 13.6 57.1963 13.9233 57.403 14.15C57.6096 14.3767 57.913 14.49 58.313 14.49C58.713 14.49 59.0196 14.3767 59.233 14.15C59.4463 13.9233 59.553 13.6 59.553 13.18V8.98H61.263V13.17C61.263 13.7967 61.1296 14.3267 60.863 14.76C60.5963 15.1933 60.2363 15.52 59.783 15.74C59.3363 15.96 58.8363 16.07 58.283 16.07C57.7296 16.07 57.233 15.9633 56.793 15.75C56.3596 15.53 56.0163 15.2033 55.763 14.77C55.5096 14.33 55.383 13.7967 55.383 13.17V8.98H57.093ZM65.8738 16L64.1738 13.66V16H62.4638V8.6H64.1738V12.69L65.8638 10.42H67.9738L65.6538 13.22L67.9938 16H65.8738ZM68.3054 13.2C68.3054 12.6267 68.4121 12.1233 68.6254 11.69C68.8454 11.2567 69.1421 10.9233 69.5154 10.69C69.8887 10.4567 70.3054 10.34 70.7654 10.34C71.1587 10.34 71.5021 10.42 71.7954 10.58C72.0954 10.74 72.3254 10.95 72.4854 11.21V10.42H74.1954V16H72.4854V15.21C72.3187 15.47 72.0854 15.68 71.7854 15.84C71.4921 16 71.1487 16.08 70.7554 16.08C70.3021 16.08 69.8887 15.9633 69.5154 15.73C69.1421 15.49 68.8454 15.1533 68.6254 14.72C68.4121 14.28 68.3054 13.7733 68.3054 13.2ZM72.4854 13.21C72.4854 12.7833 72.3654 12.4467 72.1254 12.2C71.8921 11.9533 71.6054 11.83 71.2654 11.83C70.9254 11.83 70.6354 11.9533 70.3954 12.2C70.1621 12.44 70.0454 12.7733 70.0454 13.2C70.0454 13.6267 70.1621 13.9667 70.3954 14.22C70.6354 14.4667 70.9254 14.59 71.2654 14.59C71.6054 14.59 71.8921 14.4667 72.1254 14.22C72.3654 13.9733 72.4854 13.6367 72.4854 13.21ZM77.1425 11.35C77.3425 11.0433 77.5925 10.8033 77.8925 10.63C78.1925 10.45 78.5258 10.36 78.8925 10.36V12.17H78.4225C77.9958 12.17 77.6758 12.2633 77.4625 12.45C77.2492 12.63 77.1425 12.95 77.1425 13.41V16H75.4325V10.42H77.1425V11.35ZM79.3698 13.2C79.3698 12.6267 79.4765 12.1233 79.6898 11.69C79.9098 11.2567 80.2065 10.9233 80.5798 10.69C80.9532 10.4567 81.3698 10.34 81.8298 10.34C82.2232 10.34 82.5665 10.42 82.8598 10.58C83.1598 10.74 83.3898 10.95 83.5498 11.21V10.42H85.2598V16H83.5498V15.21C83.3832 15.47 83.1498 15.68 82.8498 15.84C82.5565 16 82.2132 16.08 81.8198 16.08C81.3665 16.08 80.9532 15.9633 80.5798 15.73C80.2065 15.49 79.9098 15.1533 79.6898 14.72C79.4765 14.28 79.3698 13.7733 79.3698 13.2ZM83.5498 13.21C83.5498 12.7833 83.4298 12.4467 83.1898 12.2C82.9565 11.9533 82.6698 11.83 82.3298 11.83C81.9898 11.83 81.6998 11.9533 81.4598 12.2C81.2265 12.44 81.1098 12.7733 81.1098 13.2C81.1098 13.6267 81.2265 13.9667 81.4598 14.22C81.6998 14.4667 81.9898 14.59 82.3298 14.59C82.6698 14.59 82.9565 14.4667 83.1898 14.22C83.4298 13.9733 83.5498 13.6367 83.5498 13.21Z" fill="#171B26" fill-opacity="0.7"/>
<g id="Group 16">
<path id="Star 1" d="M25 32L25.6735 34.0729H27.8532L26.0898 35.3541L26.7634 37.4271L25 36.1459L23.2366 37.4271L23.9102 35.3541L22.1468 34.0729H24.3265L25 32Z" fill="#FFC007"/>
<path id="Star 2" d="M33.25 32L33.9235 34.0729H36.1032L34.3398 35.3541L35.0134 37.4271L33.25 36.1459L31.4866 37.4271L32.1602 35.3541L30.3968 34.0729H32.5765L33.25 32Z" fill="#FFC007"/>
<path id="Star 3" d="M41.5 32L42.1735 34.0729H44.3532L42.5898 35.3541L43.2634 37.4271L41.5 36.1459L39.7366 37.4271L40.4102 35.3541L38.6468 34.0729H40.8265L41.5 32Z" fill="#FFC007"/>
<path id="Star 4" d="M49.75 32L50.4235 34.0729H52.6032L50.8398 35.3541L51.5134 37.4271L49.75 36.1459L47.9866 37.4271L48.6602 35.3541L46.8968 34.0729H49.0765L49.75 32Z" fill="#FFC007"/>
<path id="Star 5" d="M58 32L58.6735 34.0729H60.8532L59.0898 35.3541L59.7634 37.4271L58 36.1459L56.2366 37.4271L56.9102 35.3541L55.1468 34.0729H57.3265L58 32Z" fill="#FFC007"/>
</g>
<path id="Seo Expert &#38; Mentor" d="M23.788 27.042C23.512 27.042 23.264 26.994 23.044 26.898C22.828 26.798 22.658 26.662 22.534 26.49C22.41 26.314 22.346 26.112 22.342 25.884H22.924C22.944 26.08 23.024 26.246 23.164 26.382C23.308 26.514 23.516 26.58 23.788 26.58C24.048 26.58 24.252 26.516 24.4 26.388C24.552 26.256 24.628 26.088 24.628 25.884C24.628 25.724 24.584 25.594 24.496 25.494C24.408 25.394 24.298 25.318 24.166 25.266C24.034 25.214 23.856 25.158 23.632 25.098C23.356 25.026 23.134 24.954 22.966 24.882C22.802 24.81 22.66 24.698 22.54 24.546C22.424 24.39 22.366 24.182 22.366 23.922C22.366 23.694 22.424 23.492 22.54 23.316C22.656 23.14 22.818 23.004 23.026 22.908C23.238 22.812 23.48 22.764 23.752 22.764C24.144 22.764 24.464 22.862 24.712 23.058C24.964 23.254 25.106 23.514 25.138 23.838H24.538C24.518 23.678 24.434 23.538 24.286 23.418C24.138 23.294 23.942 23.232 23.698 23.232C23.47 23.232 23.284 23.292 23.14 23.412C22.996 23.528 22.924 23.692 22.924 23.904C22.924 24.056 22.966 24.18 23.05 24.276C23.138 24.372 23.244 24.446 23.368 24.498C23.496 24.546 23.674 24.602 23.902 24.666C24.178 24.742 24.4 24.818 24.568 24.894C24.736 24.966 24.88 25.08 25 25.236C25.12 25.388 25.18 25.596 25.18 25.86C25.18 26.064 25.126 26.256 25.018 26.436C24.91 26.616 24.75 26.762 24.538 26.874C24.326 26.986 24.076 27.042 23.788 27.042ZM28.9835 25.23C28.9835 25.334 28.9775 25.444 28.9655 25.56H26.3375C26.3575 25.884 26.4675 26.138 26.6675 26.322C26.8715 26.502 27.1175 26.592 27.4055 26.592C27.6415 26.592 27.8375 26.538 27.9935 26.43C28.1535 26.318 28.2655 26.17 28.3295 25.986H28.9175C28.8295 26.302 28.6535 26.56 28.3895 26.76C28.1255 26.956 27.7975 27.054 27.4055 27.054C27.0935 27.054 26.8135 26.984 26.5655 26.844C26.3215 26.704 26.1295 26.506 25.9895 26.25C25.8495 25.99 25.7795 25.69 25.7795 25.35C25.7795 25.01 25.8475 24.712 25.9835 24.456C26.1195 24.2 26.3095 24.004 26.5535 23.868C26.8015 23.728 27.0855 23.658 27.4055 23.658C27.7175 23.658 27.9935 23.726 28.2335 23.862C28.4735 23.998 28.6575 24.186 28.7855 24.426C28.9175 24.662 28.9835 24.93 28.9835 25.23ZM28.4195 25.116C28.4195 24.908 28.3735 24.73 28.2815 24.582C28.1895 24.43 28.0635 24.316 27.9035 24.24C27.7475 24.16 27.5735 24.12 27.3815 24.12C27.1055 24.12 26.8695 24.208 26.6735 24.384C26.4815 24.56 26.3715 24.804 26.3435 25.116H28.4195ZM31.1382 27.054C30.8302 27.054 30.5502 26.984 30.2982 26.844C30.0502 26.704 29.8542 26.506 29.7102 26.25C29.5702 25.99 29.5002 25.69 29.5002 25.35C29.5002 25.014 29.5722 24.718 29.7162 24.462C29.8642 24.202 30.0642 24.004 30.3162 23.868C30.5682 23.728 30.8502 23.658 31.1622 23.658C31.4742 23.658 31.7562 23.728 32.0082 23.868C32.2602 24.004 32.4582 24.2 32.6022 24.456C32.7502 24.712 32.8242 25.01 32.8242 25.35C32.8242 25.69 32.7482 25.99 32.5962 26.25C32.4482 26.506 32.2462 26.704 31.9902 26.844C31.7342 26.984 31.4502 27.054 31.1382 27.054ZM31.1382 26.574C31.3342 26.574 31.5182 26.528 31.6902 26.436C31.8622 26.344 32.0002 26.206 32.1042 26.022C32.2122 25.838 32.2662 25.614 32.2662 25.35C32.2662 25.086 32.2142 24.862 32.1102 24.678C32.0062 24.494 31.8702 24.358 31.7022 24.27C31.5342 24.178 31.3522 24.132 31.1562 24.132C30.9562 24.132 30.7722 24.178 30.6042 24.27C30.4402 24.358 30.3082 24.494 30.2082 24.678C30.1082 24.862 30.0582 25.086 30.0582 25.35C30.0582 25.618 30.1062 25.844 30.2022 26.028C30.3022 26.212 30.4342 26.35 30.5982 26.442C30.7622 26.53 30.9422 26.574 31.1382 26.574ZM35.6877 23.262V24.66H37.2117V25.11H35.6877V26.55H37.3917V27H35.1417V22.812H37.3917V23.262H35.6877ZM39.9339 27L39.1539 25.776L38.4039 27H37.8339L38.8959 25.368L37.8339 23.712H38.4519L39.2319 24.93L39.9759 23.712H40.5459L39.4899 25.338L40.5519 27H39.9339ZM41.635 24.318C41.743 24.13 41.903 23.974 42.115 23.85C42.331 23.722 42.581 23.658 42.865 23.658C43.157 23.658 43.421 23.728 43.657 23.868C43.897 24.008 44.085 24.206 44.221 24.462C44.357 24.714 44.425 25.008 44.425 25.344C44.425 25.676 44.357 25.972 44.221 26.232C44.085 26.492 43.897 26.694 43.657 26.838C43.421 26.982 43.157 27.054 42.865 27.054C42.585 27.054 42.337 26.992 42.121 26.868C41.909 26.74 41.747 26.582 41.635 26.394V28.56H41.089V23.712H41.635V24.318ZM43.867 25.344C43.867 25.096 43.817 24.88 43.717 24.696C43.617 24.512 43.481 24.372 43.309 24.276C43.141 24.18 42.955 24.132 42.751 24.132C42.551 24.132 42.365 24.182 42.193 24.282C42.025 24.378 41.889 24.52 41.785 24.708C41.685 24.892 41.635 25.106 41.635 25.35C41.635 25.598 41.685 25.816 41.785 26.004C41.889 26.188 42.025 26.33 42.193 26.43C42.365 26.526 42.551 26.574 42.751 26.574C42.955 26.574 43.141 26.526 43.309 26.43C43.481 26.33 43.617 26.188 43.717 26.004C43.817 25.816 43.867 25.596 43.867 25.344ZM48.1436 25.23C48.1436 25.334 48.1376 25.444 48.1256 25.56H45.4976C45.5176 25.884 45.6276 26.138 45.8276 26.322C46.0316 26.502 46.2776 26.592 46.5656 26.592C46.8016 26.592 46.9976 26.538 47.1536 26.43C47.3136 26.318 47.4256 26.17 47.4896 25.986H48.0776C47.9896 26.302 47.8136 26.56 47.5496 26.76C47.2856 26.956 46.9576 27.054 46.5656 27.054C46.2536 27.054 45.9736 26.984 45.7256 26.844C45.4816 26.704 45.2896 26.506 45.1496 26.25C45.0096 25.99 44.9396 25.69 44.9396 25.35C44.9396 25.01 45.0076 24.712 45.1436 24.456C45.2796 24.2 45.4696 24.004 45.7136 23.868C45.9616 23.728 46.2456 23.658 46.5656 23.658C46.8776 23.658 47.1536 23.726 47.3936 23.862C47.6336 23.998 47.8176 24.186 47.9456 24.426C48.0776 24.662 48.1436 24.93 48.1436 25.23ZM47.5796 25.116C47.5796 24.908 47.5336 24.73 47.4416 24.582C47.3496 24.43 47.2236 24.316 47.0636 24.24C46.9076 24.16 46.7336 24.12 46.5416 24.12C46.2656 24.12 46.0296 24.208 45.8336 24.384C45.6416 24.56 45.5316 24.804 45.5036 25.116H47.5796ZM49.4103 24.246C49.5063 24.058 49.6423 23.912 49.8183 23.808C49.9983 23.704 50.2163 23.652 50.4723 23.652V24.216H50.3283C49.7163 24.216 49.4103 24.548 49.4103 25.212V27H48.8643V23.712H49.4103V24.246ZM51.7686 24.162V26.1C51.7686 26.26 51.8026 26.374 51.8706 26.442C51.9386 26.506 52.0566 26.538 52.2246 26.538H52.6266V27H52.1346C51.8306 27 51.6026 26.93 51.4506 26.79C51.2986 26.65 51.2226 26.42 51.2226 26.1V24.162H50.7966V23.712H51.2226V22.884H51.7686V23.712H52.6266V24.162H51.7686ZM58.0978 27L57.5518 26.448C57.3478 26.66 57.1298 26.818 56.8978 26.922C56.6658 27.022 56.4038 27.072 56.1118 27.072C55.8238 27.072 55.5678 27.02 55.3438 26.916C55.1238 26.812 54.9518 26.664 54.8278 26.472C54.7078 26.28 54.6478 26.056 54.6478 25.8C54.6478 25.508 54.7298 25.252 54.8938 25.032C55.0618 24.808 55.3078 24.632 55.6318 24.504C55.5038 24.352 55.4118 24.212 55.3558 24.084C55.2998 23.956 55.2718 23.816 55.2718 23.664C55.2718 23.488 55.3158 23.33 55.4038 23.19C55.4958 23.046 55.6258 22.934 55.7938 22.854C55.9618 22.774 56.1558 22.734 56.3758 22.734C56.5918 22.734 56.7798 22.776 56.9398 22.86C57.0998 22.944 57.2198 23.062 57.2998 23.214C57.3798 23.362 57.4158 23.528 57.4078 23.712H56.8618C56.8658 23.548 56.8198 23.42 56.7238 23.328C56.6278 23.232 56.5038 23.184 56.3518 23.184C56.1918 23.184 56.0618 23.23 55.9618 23.322C55.8658 23.41 55.8178 23.524 55.8178 23.664C55.8178 23.784 55.8498 23.9 55.9138 24.012C55.9818 24.124 56.0938 24.262 56.2498 24.426L57.4978 25.68L57.6058 25.512L58.0138 24.828H58.6018L58.1098 25.68C58.0418 25.8 57.9618 25.926 57.8698 26.058L58.8118 27H58.0978ZM56.1118 26.604C56.3278 26.604 56.5218 26.562 56.6938 26.478C56.8698 26.394 57.0358 26.264 57.1918 26.088L55.9618 24.852C55.4498 25.048 55.1938 25.358 55.1938 25.782C55.1938 26.018 55.2778 26.214 55.4458 26.37C55.6178 26.526 55.8398 26.604 56.1118 26.604ZM65.1649 22.848V27H64.6189V23.904L63.2389 27H62.8549L61.4689 23.898V27H60.9229V22.848H61.5109L63.0469 26.28L64.5829 22.848H65.1649ZM69.0909 25.23C69.0909 25.334 69.0849 25.444 69.0729 25.56H66.4449C66.4649 25.884 66.5749 26.138 66.7749 26.322C66.9789 26.502 67.2249 26.592 67.5129 26.592C67.7489 26.592 67.9449 26.538 68.1009 26.43C68.2609 26.318 68.3729 26.17 68.4369 25.986H69.0249C68.9369 26.302 68.7609 26.56 68.4969 26.76C68.2329 26.956 67.9049 27.054 67.5129 27.054C67.2009 27.054 66.9209 26.984 66.6729 26.844C66.4289 26.704 66.2369 26.506 66.0969 26.25C65.9569 25.99 65.8869 25.69 65.8869 25.35C65.8869 25.01 65.9549 24.712 66.0909 24.456C66.2269 24.2 66.4169 24.004 66.6609 23.868C66.9089 23.728 67.1929 23.658 67.5129 23.658C67.8249 23.658 68.1009 23.726 68.3409 23.862C68.5809 23.998 68.7649 24.186 68.8929 24.426C69.0249 24.662 69.0909 24.93 69.0909 25.23ZM68.5269 25.116C68.5269 24.908 68.4809 24.73 68.3889 24.582C68.2969 24.43 68.1709 24.316 68.0109 24.24C67.8549 24.16 67.6809 24.12 67.4889 24.12C67.2129 24.12 66.9769 24.208 66.7809 24.384C66.5889 24.56 66.4789 24.804 66.4509 25.116H68.5269ZM71.4136 23.652C71.8136 23.652 72.1376 23.774 72.3856 24.018C72.6336 24.258 72.7576 24.606 72.7576 25.062V27H72.2176V25.14C72.2176 24.812 72.1356 24.562 71.9716 24.39C71.8076 24.214 71.5836 24.126 71.2996 24.126C71.0116 24.126 70.7816 24.216 70.6096 24.396C70.4416 24.576 70.3576 24.838 70.3576 25.182V27H69.8116V23.712H70.3576V24.18C70.4656 24.012 70.6116 23.882 70.7956 23.79C70.9836 23.698 71.1896 23.652 71.4136 23.652ZM74.3155 24.162V26.1C74.3155 26.26 74.3495 26.374 74.4175 26.442C74.4855 26.506 74.6035 26.538 74.7715 26.538H75.1735V27H74.6815C74.3775 27 74.1495 26.93 73.9975 26.79C73.8455 26.65 73.7695 26.42 73.7695 26.1V24.162H73.3435V23.712H73.7695V22.884H74.3155V23.712H75.1735V24.162H74.3155ZM77.269 27.054C76.961 27.054 76.681 26.984 76.429 26.844C76.181 26.704 75.985 26.506 75.841 26.25C75.701 25.99 75.631 25.69 75.631 25.35C75.631 25.014 75.703 24.718 75.847 24.462C75.995 24.202 76.195 24.004 76.447 23.868C76.699 23.728 76.981 23.658 77.293 23.658C77.605 23.658 77.887 23.728 78.139 23.868C78.391 24.004 78.589 24.2 78.733 24.456C78.881 24.712 78.955 25.01 78.955 25.35C78.955 25.69 78.879 25.99 78.727 26.25C78.579 26.506 78.377 26.704 78.121 26.844C77.865 26.984 77.581 27.054 77.269 27.054ZM77.269 26.574C77.465 26.574 77.649 26.528 77.821 26.436C77.993 26.344 78.131 26.206 78.235 26.022C78.343 25.838 78.397 25.614 78.397 25.35C78.397 25.086 78.345 24.862 78.241 24.678C78.137 24.494 78.001 24.358 77.833 24.27C77.665 24.178 77.483 24.132 77.287 24.132C77.087 24.132 76.903 24.178 76.735 24.27C76.571 24.358 76.439 24.494 76.339 24.678C76.239 24.862 76.189 25.086 76.189 25.35C76.189 25.618 76.237 25.844 76.333 26.028C76.433 26.212 76.565 26.35 76.729 26.442C76.893 26.53 77.073 26.574 77.269 26.574ZM80.2189 24.246C80.3149 24.058 80.4509 23.912 80.6269 23.808C80.8069 23.704 81.0249 23.652 81.2809 23.652V24.216H81.1369C80.5249 24.216 80.2189 24.548 80.2189 25.212V27H79.6729V23.712H80.2189V24.246Z" fill="#171B26" fill-opacity="0.7"/>
</g>
<defs>
<filter id="filter0_d_130_338" x="-60" y="-56" width="216" height="163" filterUnits="userSpaceOnUse" color-interpolation-filters="sRGB">
<feFlood flood-opacity="0" result="BackgroundImageFix"/>
<feColorMatrix in="SourceAlpha" type="matrix" values="0 0 0 0 0 0 0 0 0 0 0 0 0 0 0 0 0 0 127 0" result="hardAlpha"/>
<feOffset dy="4"/>
<feGaussianBlur stdDeviation="30"/>
<feComposite in2="hardAlpha" operator="out"/>
<feColorMatrix type="matrix" values="0 0 0 0 0 0 0 0 0 0 0 0 0 0 0 0 0 0 0.15 0"/>
<feBlend mode="normal" in2="BackgroundImageFix" result="effect1_dropShadow_130_338"/>
<feBlend mode="normal" in="SourceGraphic" in2="effect1_dropShadow_130_338" result="shape"/>
</filter>
</defs>
</svg>
