<svg width="92" height="30" viewBox="0 0 92 30" fill="none" xmlns="http://www.w3.org/2000/svg">
<path d="M11.3191 0H12.1364C14.9738 0.0616822 17.7649 1.2028 19.7696 3.22289C19.0294 3.9785 18.2738 4.70327 17.549 5.45887C16.4233 4.44112 15.0663 3.65467 13.586 3.3771C11.3962 2.91448 9.03689 3.33084 7.20185 4.5799C5.19717 5.89065 3.84017 8.11121 3.54718 10.486C3.22334 12.8299 3.88643 15.2972 5.41306 17.1168C6.87801 18.8902 9.11399 20.0004 11.4271 20.0776C13.586 20.2009 15.8374 19.5378 17.4102 18.0266C18.6439 16.9626 19.2145 15.3434 19.3995 13.7705C16.8397 13.7705 14.2799 13.786 11.7201 13.7705V10.5939H22.499C23.0542 14.0019 22.2523 17.8416 19.6616 20.278C17.9345 22.0051 15.5444 23.0229 13.1079 23.2233C10.7486 23.4547 8.31213 23.0075 6.21493 21.8663C3.70138 20.5247 1.69671 18.2579 0.709794 15.5902C-0.215439 13.1383 -0.230859 10.3626 0.632691 7.89532C1.41914 5.64392 2.93035 3.65467 4.87334 2.26682C6.73923 0.894392 9.00605 0.138785 11.3191 0Z" fill="#3780FF"/>
<path d="M73.1555 0.801758H76.4556V22.8223C75.3607 22.8223 74.2504 22.8377 73.1555 22.8069C73.1709 15.4821 73.1555 8.14194 73.1555 0.801758Z" fill="#38B137"/>
<path d="M29.8392 8.43464C31.8747 8.04913 34.0798 8.4809 35.7607 9.69913C37.2873 10.7786 38.3513 12.4748 38.6751 14.3253C39.0915 16.4687 38.5672 18.8127 37.1794 20.5089C35.6836 22.4056 33.2317 23.4234 30.8415 23.2692C28.6518 23.1458 26.5238 22.051 25.2284 20.2622C23.7635 18.2884 23.4088 15.5743 24.2107 13.2613C25.0125 10.7786 27.2794 8.88184 29.8392 8.43464ZM30.3018 11.3645C29.4691 11.5804 28.698 12.0585 28.1429 12.737C26.6471 14.5257 26.7396 17.4402 28.3896 19.1056C29.3303 20.0617 30.749 20.5089 32.0597 20.2468C33.278 20.0309 34.342 19.2136 34.928 18.1341C35.9457 16.2991 35.6527 13.7701 34.0952 12.336C33.0929 11.4108 31.628 11.0253 30.3018 11.3645Z" fill="#FA3913"/>
<path d="M46.1849 8.43486C48.5134 7.98767 51.0579 8.63533 52.8004 10.2699C55.6378 12.8143 55.9462 17.5792 53.5252 20.5091C52.0602 22.3596 49.6854 23.3773 47.3415 23.2694C45.1055 23.2077 42.9003 22.0974 41.5742 20.2624C40.0784 18.2423 39.7545 15.4666 40.6027 13.1073C41.4508 10.7017 43.6714 8.86664 46.1849 8.43486ZM46.6476 11.3648C45.8148 11.5806 45.0438 12.0587 44.4887 12.7218C43.0083 14.4797 43.07 17.3479 44.6583 19.0287C45.599 20.0311 47.0639 20.5245 48.4209 20.247C49.6237 20.0156 50.7032 19.2138 51.2892 18.1343C52.2915 16.2839 51.9985 13.7549 50.4256 12.3208C49.4233 11.3956 47.9583 11.0255 46.6476 11.3648Z" fill="#FCBD06"/>
<path d="M60.048 9.32973C61.8214 8.21945 64.1807 7.91104 66.0929 8.86712C66.6943 9.12927 67.1877 9.57646 67.6658 10.0237C67.6812 9.6073 67.6658 9.17553 67.6812 8.74375C68.7144 8.75917 69.7475 8.74375 70.7961 8.75917V22.3601C70.7807 24.411 70.2564 26.5853 68.776 28.0811C67.1569 29.7311 64.6742 30.24 62.4382 29.9007C60.048 29.546 57.9662 27.8035 57.041 25.5984C57.9662 25.1512 58.9377 24.7965 59.8938 24.3802C60.4335 25.6446 61.5284 26.7241 62.9008 26.9708C64.2732 27.2175 65.8616 26.8783 66.7559 25.7372C67.712 24.5652 67.712 22.9615 67.6658 21.5274C66.9564 22.2213 66.1391 22.8381 65.1522 23.0694C63.0087 23.6708 60.6494 22.9306 58.9994 21.4811C57.334 20.0316 56.3471 17.7956 56.4396 15.575C56.4858 13.0615 57.9045 10.6405 60.048 9.32973ZM63.2401 11.3036C62.2994 11.4578 61.4204 11.9821 60.819 12.7068C59.3695 14.4339 59.3695 17.1942 60.8344 18.8905C61.6672 19.8928 63.0087 20.4479 64.3041 20.3091C65.5223 20.1858 66.648 19.4148 67.2494 18.3507C68.2672 16.5465 68.0975 14.0947 66.7251 12.5218C65.877 11.5503 64.52 11.0723 63.2401 11.3036Z" fill="#3780FF"/>
<path d="M80.4186 10.116C82.2691 8.38888 85.1219 7.8029 87.4967 8.71271C89.7481 9.56084 91.1822 11.7043 91.9069 13.9094C88.5607 15.2973 85.2298 16.6697 81.8836 18.0576C82.3462 18.9366 83.0555 19.7384 84.0116 20.0623C85.3532 20.5403 86.9569 20.3707 88.0826 19.4763C88.5298 19.137 88.8845 18.6898 89.2237 18.2581C90.0719 18.8286 90.92 19.3838 91.7681 19.9543C90.5653 21.7585 88.5452 23.023 86.371 23.2235C83.9653 23.5165 81.4055 22.5912 79.8481 20.7099C77.2883 17.7492 77.535 12.7837 80.4186 10.116ZM82.0686 12.9688C81.5443 13.7244 81.3284 14.6496 81.3439 15.5595C83.5798 14.6342 85.8158 13.709 88.0518 12.7683C87.6817 11.9048 86.7873 11.3805 85.8775 11.2417C84.4126 10.9795 82.8859 11.766 82.0686 12.9688Z" fill="#FA3913"/>
</svg>
