<svg width="104" height="26" viewBox="0 0 104 26" fill="none" xmlns="http://www.w3.org/2000/svg">
<path fill-rule="evenodd" clip-rule="evenodd" d="M97.4606 3.11426C96.4225 3.11426 95.0541 3.20863 94.5586 3.20863C94.2755 3.20863 93.1666 3.16144 92.8363 3.16144V3.42097C93.4025 3.53894 93.7329 3.72769 93.7329 4.27034V11.9147C93.7329 12.4573 93.4025 12.6933 92.8127 12.7876V13.0708C93.143 13.0708 94.1575 13.0236 94.4642 13.0236C94.9361 13.0236 96.2338 13.118 97.2719 13.118C100.905 13.118 103.123 10.9709 103.123 8.04533C103.123 5.07253 101 3.11426 97.4606 3.11426ZM54.4734 3.13785C53.9307 3.13785 52.5623 3.20863 52.0668 3.20863C51.7601 3.20863 50.722 3.16144 50.3917 3.16144V3.42097C51.0287 3.51535 51.2646 3.82207 51.2646 4.29394V11.8911C51.2646 12.4337 50.9343 12.6933 50.3917 12.7876V13.0708C50.722 13.0708 51.7837 13.0236 52.0432 13.0236C52.3499 13.0236 53.4352 13.0708 53.7655 13.0708V12.7876C53.1757 12.6697 52.8454 12.3866 52.8454 11.8911V8.5172C53.0106 8.54079 53.1521 8.56439 53.3173 8.58798C54.0723 8.70595 54.4969 9.05985 54.8273 9.48454C55.3699 10.1688 56.3608 11.5608 56.8799 12.2214C57.5169 12.9764 58.1303 13.2595 58.9561 13.2595C59.3336 13.2595 59.8291 13.2123 60.1358 13.1416V12.9292C59.4988 12.9056 58.8853 12.245 58.4371 11.6787C57.9652 11.1125 56.7855 9.46094 56.3608 8.96548C56.0069 8.56438 55.6766 8.37564 55.6766 8.37564C57.1866 7.99814 58.1775 7.12517 58.1775 5.80393C58.1775 4.12878 56.8327 3.13785 54.4734 3.13785ZM85.7111 3.13785C85.1684 3.13785 83.8 3.20863 83.3046 3.20863C82.9978 3.20863 81.9597 3.16144 81.6294 3.16144V3.42097C82.2664 3.51535 82.5024 3.82207 82.5024 4.29394V11.8911C82.5024 12.4337 82.1721 12.6933 81.6294 12.7876V13.0708C81.9597 13.0708 83.0214 13.0236 83.281 13.0236C83.5877 13.0236 84.673 13.0708 85.0033 13.0708V12.7876C84.4134 12.6697 84.0831 12.3866 84.0831 11.8911V8.5172C84.2483 8.54079 84.3898 8.56439 84.555 8.58798C85.31 8.70595 85.7347 9.05985 86.065 9.48454C86.6076 10.1688 87.5514 11.5608 88.094 12.2214C88.7074 12.9764 89.3681 13.2595 90.1702 13.2595C90.5477 13.2595 91.0432 13.2123 91.3499 13.1416V12.9292C90.7129 12.9056 90.1231 12.245 89.6512 11.6787C89.1793 11.1125 88.0232 9.46094 87.5986 8.96548C87.2447 8.56438 86.9143 8.37564 86.9143 8.37564C88.4243 7.99814 89.4153 7.12517 89.4153 5.80393C89.3917 4.12878 88.0704 3.13785 85.7111 3.13785ZM43.2193 3.13785C43.2193 3.13785 43.0541 3.77488 42.9126 4.10519L39.751 11.7259C39.5151 12.2686 39.1848 12.6697 38.5478 12.8112V13.0708L39.987 13.0472C40.1993 13.0472 41.0487 13.0708 41.379 13.0708V12.8112C40.8127 12.6697 40.6712 12.4337 40.6712 12.1742C40.6712 11.9855 40.7656 11.7259 40.8363 11.5372L41.497 9.90922H45.2011L45.9089 11.5372C46.0033 11.7731 46.0977 12.0091 46.0977 12.2214C46.0977 12.4573 45.9561 12.7169 45.4607 12.8348V13.0944C45.8382 13.0944 46.8999 13.0708 47.1594 13.0708C47.4189 13.0708 48.5278 13.0944 48.9053 13.0944V12.8348C48.2447 12.6697 47.9852 12.2922 47.7492 11.7495L44.3754 4.10519C44.2338 3.79847 44.0922 3.13785 44.0922 3.13785H43.2193ZM74.5986 3.13785C74.5986 3.13785 74.4334 3.77488 74.3154 4.10519L71.1539 11.7259C70.918 12.2686 70.5877 12.6697 69.9743 12.8112V13.0708L71.437 13.0472C71.6494 13.0472 72.4752 13.0708 72.8055 13.0708V12.8112C72.2628 12.6697 72.1213 12.4337 72.1213 12.1742C72.1213 11.9855 72.192 11.7259 72.2864 11.5372L72.947 9.90922H76.6512L77.359 11.5372C77.4534 11.7731 77.5477 12.0091 77.5477 12.2214C77.5477 12.4573 77.4062 12.7169 76.9107 12.8348V13.0944C77.2646 13.0944 78.3499 13.0708 78.6095 13.0708C78.869 13.0708 80.0015 13.0944 80.3554 13.0944V12.8348C79.6948 12.6697 79.4352 12.2922 79.1993 11.7495L75.849 4.10519C75.7075 3.79847 75.5423 3.13785 75.5423 3.13785H74.5986ZM26.4443 3.18504V3.44457C26.9398 3.56254 27.2465 3.77488 27.2465 4.29394V11.9855C27.2465 12.5045 26.9162 12.7169 26.4443 12.8348V13.0944L27.9779 13.0708C28.2846 13.0708 29.3935 13.0944 29.6295 13.0944V12.8348C29.134 12.7169 28.8273 12.5281 28.8273 11.9855V8.35204H34.5605V11.9855C34.5605 12.5045 34.2302 12.7169 33.7819 12.8348V13.0944C34.0178 13.0944 35.1031 13.0708 35.4098 13.0708L36.9906 13.0944V12.8348C36.4951 12.7169 36.1648 12.5045 36.1648 11.9855V4.29394C36.1648 3.77488 36.5187 3.56254 36.9906 3.44457V3.18504L35.4098 3.23223C35.1031 3.23223 34.0178 3.18504 33.7819 3.18504V3.44457C34.2774 3.56254 34.5605 3.77488 34.5605 4.29394V7.50267H28.8273V4.29394C28.8273 3.77488 29.1812 3.56254 29.6295 3.44457V3.18504C29.3935 3.18504 28.2846 3.23223 27.9779 3.23223C27.742 3.20863 26.6803 3.18504 26.4443 3.18504ZM59.8527 3.20863V3.49175C60.4189 3.60972 60.7492 3.96363 60.9616 4.45909L64.8545 13.1651H65.6095L69.1721 4.76581C69.5024 3.98722 69.8799 3.65691 70.4697 3.49175V3.20863C70.1158 3.20863 69.1957 3.25582 68.9597 3.25582C68.7238 3.25582 67.9452 3.20863 67.6149 3.20863V3.49175C68.016 3.56253 68.2991 3.77488 68.2991 4.08159C68.2991 4.36472 68.1576 4.71862 67.9688 5.19049L65.5623 10.9945L63.0142 5.19049C62.7311 4.57706 62.5895 4.27034 62.5895 4.03441C62.5895 3.7041 62.967 3.53894 63.2737 3.46816V3.18504C62.9198 3.18504 61.8581 3.23223 61.6222 3.23223C61.3626 3.25582 60.2066 3.20863 59.8527 3.20863ZM54.0015 3.77488C55.6294 3.77488 56.526 4.60066 56.526 5.94549C56.526 6.88924 55.9362 7.95095 54.0959 7.95095C53.6476 7.95095 53.1757 7.92736 52.869 7.90376V3.89284C53.2465 3.82206 53.624 3.77488 54.0015 3.77488ZM85.2392 3.77488C86.8672 3.77488 87.7637 4.60066 87.7637 5.94549C87.7637 6.88924 87.1739 7.95095 85.3336 7.95095C84.8853 7.95095 84.4134 7.92736 84.1067 7.90376V3.89284C84.4606 3.82206 84.8617 3.77488 85.2392 3.77488ZM96.9887 3.77488C99.7492 3.77488 101.377 5.59159 101.377 8.16329C101.377 10.6406 99.8436 12.4337 96.8708 12.4337C96.3517 12.4337 95.6911 12.3866 95.3372 12.3394V3.89284C95.7147 3.82206 96.4225 3.77488 96.9887 3.77488ZM43.2901 5.45003L44.8708 9.13063H41.8273L43.2901 5.45003ZM74.6693 5.45003L76.2265 9.13063H73.183L74.6693 5.45003Z" fill="#231F20"/>
<path fill-rule="evenodd" clip-rule="evenodd" d="M10.9437 0.140625H0.303047L0.255859 8.65787C0.255859 19.1098 10.7314 25.7631 10.8258 25.8103L10.8494 25.8339C10.873 25.8339 10.9437 25.7867 10.9437 25.7867C12.7369 24.6307 21.608 18.3312 21.608 8.70506V0.140625H10.9437Z" fill="#A62131"/>
<path fill-rule="evenodd" clip-rule="evenodd" d="M21.8437 0.495464C21.8437 3.37387 21.8908 6.20508 21.8437 9.10708C21.7965 11.0889 21.3718 13.0472 20.6404 14.8875C18.9181 19.2051 15.615 22.8149 11.8872 25.3866C11.5805 25.5989 11.2502 25.8113 10.9435 26C8.74931 24.5844 6.79106 22.7677 5.09233 20.7858C2.30831 17.4828 0.30287 13.4247 0.208496 8.91833V8.87114V0H21.8437V0.495464ZM0.585991 8.77677C0.633178 14.0381 3.60595 19.0635 7.38089 22.6497C8.48978 23.7114 9.64586 24.6788 10.9199 25.5281H10.9435C12.9725 24.2777 14.8128 22.6261 16.4172 20.8566C19.3663 17.5535 21.4426 13.3539 21.4662 8.75318C21.4662 5.99274 21.4662 3.23231 21.4662 0.448278V0.330311H0.585991V8.44646V8.77677Z" fill="#231F20"/>
<path fill-rule="evenodd" clip-rule="evenodd" d="M16.2755 10.1935C16.2755 10.1935 16.0868 10.7833 15.2846 10.1699L12.5006 10.0991C12.5006 10.0991 12.1467 10.2171 12.0759 9.8396C12.0759 9.8396 12.1467 9.08461 12.0995 9.01382C12.0995 9.01382 12.1231 8.80148 11.7456 8.80148C11.7456 8.80148 11.1794 8.87226 11.1794 8.3768C11.1794 8.3768 11.085 7.85774 11.8636 7.85774C11.8636 7.85774 12.1231 7.97571 12.1231 7.669C12.1231 7.669 12.0995 5.522 12.0995 5.35684C12.0995 5.35684 12.1703 5.1681 11.7928 5.12091C11.7928 5.12091 11.2502 5.23888 11.1794 4.88497C11.1794 4.88497 11.1558 4.34233 11.5097 4.29514C11.5097 4.29514 11.958 4.31873 12.0287 4.22436C12.0287 4.22436 12.1231 4.29514 12.1231 3.89405L12.1467 3.20984C12.1467 3.20984 12.1939 3.02109 12.477 3.04469C12.477 3.04469 12.9961 3.06828 13.0668 3.02109C13.0668 3.02109 13.1848 2.87953 13.2084 2.80875C13.2084 2.80875 13.4679 2.78516 13.5151 2.85594C13.5151 2.85594 13.9162 3.11546 15.4262 3.02109C15.4262 3.02109 15.6621 3.02109 15.7093 3.09187C15.7093 3.09187 15.9924 3.30421 16.1576 3.06828C16.1576 3.06828 16.4171 3.02109 17.1485 3.04469C17.1485 3.04469 17.9507 3.25702 18.5169 2.78516L18.7056 2.80875C18.7056 2.80875 18.9416 3.18624 19.1067 3.06828C19.1067 3.06828 19.6022 3.02109 19.6966 3.11547C19.6966 3.11547 19.8617 3.3514 19.7673 4.01201C19.7673 4.01201 19.673 4.29514 20.1448 4.29514C20.1448 4.29514 20.6875 4.20076 20.6167 4.69623C20.6167 4.69623 20.7583 5.28606 19.8617 5.19169C19.8617 5.19169 19.7437 5.35684 19.7673 5.47481C19.7673 5.47481 19.7437 7.36228 19.7437 7.57462C19.7437 7.57462 19.7202 7.88134 20.1212 7.85774C20.1212 7.85774 20.6403 7.83415 20.6639 8.30602C20.6639 8.30602 20.7347 8.94304 19.9797 8.82508C19.9797 8.82508 19.7437 8.84867 19.7202 9.01382L19.6966 9.8396C19.6966 9.8396 19.7202 10.2643 19.2483 10.1463C19.1775 10.1463 16.6766 10.1935 16.4643 10.1227C16.4171 10.1463 16.2991 10.1227 16.2755 10.1935Z" fill="white"/>
<path fill-rule="evenodd" clip-rule="evenodd" d="M10.9436 12.9528C10.9436 12.9528 11.0615 12.9057 11.0851 12.8113C11.0851 12.8113 11.439 12.7877 11.4862 12.7169L12.5715 12.8113C12.5715 12.8113 13.6568 12.8821 14.1051 12.5518C14.1051 12.5518 14.2703 12.5518 14.3882 12.5989C14.3882 12.5989 14.6242 12.6461 14.695 12.7405L15.332 12.7169C15.332 12.7169 15.6859 12.8349 15.6623 13.0708V13.3775C15.6623 13.3775 15.5915 13.9674 15.7567 14.0145H16.2285C16.2285 14.0145 16.6296 14.2033 16.5824 14.4156C16.5824 14.4156 16.606 14.7459 16.2521 14.8167C16.2521 14.8167 15.8982 14.9111 15.7803 14.9111C15.7803 14.9111 15.6623 15.0527 15.6387 15.2414L15.5915 17.412C15.5915 17.412 15.5679 17.6479 15.8982 17.6008C15.8982 17.6008 16.4173 17.5536 16.5588 17.8367C16.5588 17.8367 16.7004 18.3086 16.4173 18.4029L16.2285 18.4973L15.8039 18.5681C15.8039 18.5681 15.6151 18.5917 15.6151 18.8984V19.4646C15.6151 19.4646 15.6387 19.8657 15.3084 19.8657L14.8365 19.8893C14.8365 19.8893 14.7185 19.9837 14.4826 19.9129C14.4826 19.9129 11.675 19.9601 11.5806 19.9365L11.2503 20.0073C11.2503 20.0073 10.8964 20.3376 10.5897 20.0781L10.3537 19.8893C10.3537 19.8893 10.1886 19.9129 10.1178 19.9129C10.047 19.8893 7.00345 19.9365 7.00345 19.9365C7.00345 19.9365 6.36643 20.0073 6.31924 19.795C6.31924 19.795 6.24846 18.9456 6.27205 18.8512C6.27205 18.8512 6.27205 18.6153 6.13049 18.5917C6.13049 18.5917 5.49346 18.5681 5.46987 18.4973C5.46987 18.4973 5.11597 18.2614 5.21034 18.0018C5.21034 18.0018 5.32831 17.6715 5.68221 17.6479C5.68221 17.6479 6.20127 17.7423 6.20127 17.5772C6.20127 17.5772 6.22486 17.4828 6.22486 17.3176C6.22486 17.3176 6.24846 15.3594 6.24846 15.2178C6.24846 15.2178 6.29564 14.9583 6.0833 14.9583C6.0833 14.9583 5.84737 15.0291 5.70581 14.9347C5.70581 14.9347 5.30471 14.9583 5.23393 14.628C5.23393 14.628 5.16315 14.4392 5.25753 14.2741C5.25753 14.2741 5.44628 13.9202 5.96533 14.0381C5.96533 14.0381 6.27205 14.1325 6.29564 13.8966L6.27205 13.0944C6.27205 13.0944 6.20127 12.8821 6.62596 12.7641C6.62596 12.7641 7.14501 12.9057 7.31017 12.6461C7.31017 12.6461 7.49892 12.2922 7.64048 12.5282C7.64048 12.5282 7.9472 12.8349 8.82016 12.7877C8.82016 12.7877 10.3066 12.6697 10.3301 12.7405C10.3301 12.7405 10.684 12.7877 10.802 12.9057L10.9436 12.9528ZM6.43721 10.1924C6.43721 10.1924 6.24846 10.7822 5.44628 10.1688L2.66223 10.098C2.66223 10.098 2.30833 10.216 2.23755 9.8385C2.23755 9.8385 2.30833 9.08351 2.26114 9.01273C2.26114 9.01273 2.28474 8.80039 1.90724 8.80039C1.90724 8.80039 1.341 8.87117 1.341 8.3757C1.341 8.3757 1.24662 7.83305 2.02521 7.85665C2.02521 7.85665 2.26114 7.97461 2.28474 7.6679C2.28474 7.6679 2.26114 5.5209 2.26114 5.35574C2.26114 5.35574 2.33192 5.16699 1.95443 5.11981C1.95443 5.11981 1.41178 5.23777 1.341 4.86028C1.341 4.86028 1.3174 4.31763 1.67131 4.27044C1.67131 4.27044 2.11958 4.29403 2.19036 4.19966C2.19036 4.19966 2.28474 4.27044 2.26114 3.86935L2.28474 3.18514C2.28474 3.18514 2.33193 2.99639 2.61505 3.01998C2.61505 3.01998 3.13411 3.04358 3.20489 2.99639C3.20489 2.99639 3.32286 2.85483 3.34645 2.78405C3.34645 2.78405 3.60598 2.76045 3.65317 2.83123C3.65317 2.83123 4.05426 3.09077 5.56424 2.99639C5.56424 2.99639 5.80018 2.99639 5.84737 3.06717C5.84737 3.06717 6.13049 3.27951 6.29564 3.04358C6.29564 3.04358 6.55517 2.99639 7.28658 3.01998C7.28658 3.01998 8.08876 3.23232 8.655 2.78405L8.84375 2.80764C8.84375 2.80764 9.07969 3.18514 9.24484 3.06717C9.24484 3.06717 9.74031 3.01999 9.83468 3.11436C9.83468 3.11436 9.99984 3.37389 9.90546 4.01091C9.90546 4.01091 9.81109 4.29403 10.283 4.29403C10.283 4.29403 10.8256 4.19966 10.7548 4.69512C10.7548 4.69512 10.8964 5.28496 9.99984 5.19058C9.99984 5.19058 9.88187 5.35574 9.90546 5.47371C9.90546 5.47371 9.88187 7.36119 9.88187 7.57353C9.88187 7.57353 9.85827 7.88024 10.2594 7.85665C10.2594 7.85665 10.7784 7.83306 10.802 8.30493C10.802 8.30493 10.8728 8.94195 10.1178 8.82398C10.1178 8.82398 9.88187 8.84758 9.85827 9.01273L9.83468 9.8385C9.83468 9.8385 9.85827 10.2632 9.3864 10.1452C9.31562 10.1452 6.8147 10.1924 6.60236 10.1216C6.57877 10.1452 6.48439 10.1216 6.43721 10.1924Z" fill="white"/>
<path fill-rule="evenodd" clip-rule="evenodd" d="M16.2755 10.1935C16.2755 10.1935 16.0868 10.7833 15.2846 10.1699L12.5006 10.0991C12.5006 10.0991 12.1467 10.2171 12.0759 9.8396C12.0759 9.8396 12.1467 9.08461 12.0995 9.01382C12.0995 9.01382 12.1231 8.80148 11.7456 8.80148C11.7456 8.80148 11.1794 8.87226 11.1794 8.3768C11.1794 8.3768 11.085 7.85774 11.8636 7.85774C11.8636 7.85774 12.1231 7.97571 12.1231 7.669C12.1231 7.669 12.0995 5.522 12.0995 5.35684C12.0995 5.35684 12.1703 5.1681 11.7928 5.12091C11.7928 5.12091 11.2502 5.23888 11.1794 4.88497C11.1794 4.88497 11.1558 4.34233 11.5097 4.29514C11.5097 4.29514 11.958 4.31873 12.0287 4.22436C12.0287 4.22436 12.1231 4.29514 12.1231 3.89405L12.1467 3.20984C12.1467 3.20984 12.1939 3.02109 12.477 3.04469C12.477 3.04469 12.9961 3.06828 13.0668 3.02109C13.0668 3.02109 13.1848 2.87953 13.2084 2.80875C13.2084 2.80875 13.4679 2.78516 13.5151 2.85594C13.5151 2.85594 13.9162 3.11546 15.4262 3.02109C15.4262 3.02109 15.6621 3.02109 15.7093 3.09187C15.7093 3.09187 15.9924 3.30421 16.1576 3.06828C16.1576 3.06828 16.4171 3.02109 17.1485 3.04469C17.1485 3.04469 17.9507 3.25702 18.5169 2.78516L18.7056 2.80875C18.7056 2.80875 18.9416 3.18624 19.1067 3.06828C19.1067 3.06828 19.6022 3.02109 19.6966 3.11547C19.6966 3.11547 19.8617 3.3514 19.7673 4.01201C19.7673 4.01201 19.673 4.29514 20.1448 4.29514C20.1448 4.29514 20.6875 4.20076 20.6167 4.69623C20.6167 4.69623 20.7583 5.28606 19.8617 5.19169C19.8617 5.19169 19.7437 5.35684 19.7673 5.47481C19.7673 5.47481 19.7437 7.36228 19.7437 7.57462C19.7437 7.57462 19.7202 7.88134 20.1212 7.85774C20.1212 7.85774 20.6403 7.83415 20.6639 8.30602C20.6639 8.30602 20.7347 8.94304 19.9797 8.82508C19.9797 8.82508 19.7437 8.84867 19.7202 9.01382L19.6966 9.8396C19.6966 9.8396 19.7202 10.2643 19.2483 10.1463C19.1775 10.1463 16.6766 10.1935 16.4643 10.1227C16.4171 10.1463 16.2991 10.1227 16.2755 10.1935Z" fill="#231F20"/>
<path fill-rule="evenodd" clip-rule="evenodd" d="M15.9218 9.3903C15.9218 9.3903 15.6151 9.3903 15.6151 9.81498C15.6151 9.81498 15.6387 10.1217 15.969 10.1217C15.969 10.1217 16.2757 10.0745 16.2285 9.7442C16.2521 9.7442 16.0869 9.31951 15.9218 9.3903ZM19.6732 4.97826C19.6732 4.97826 19.508 5.07264 19.5552 5.28498L19.508 7.69154C19.508 7.69154 19.4844 8.09264 19.8619 8.09264C19.8619 8.09264 20.263 8.06904 20.3574 8.21061C20.3574 8.21061 20.6405 8.6353 20.0271 8.58811C20.0271 8.58811 19.6496 8.56451 19.5552 8.6353C19.5552 8.6353 19.4844 8.70608 19.4372 9.48467C19.4372 9.48467 19.4608 9.95655 19.1305 9.88577C19.1305 9.88577 16.8419 9.90936 16.606 9.86217C16.606 9.86217 16.3701 9.93295 16.3465 9.7442C16.3465 9.7442 16.3465 9.60264 16.5824 9.60264L18.8946 9.57905C18.8946 9.57905 19.1069 9.69702 19.1069 9.29592C19.1069 9.29592 19.2013 7.5028 19.2013 5.52092C19.2013 4.93107 19.2249 4.31763 19.2013 3.72779C19.2013 3.72779 19.1541 3.46826 19.0833 3.42107C19.0833 3.42107 19.0833 3.16154 19.3664 3.25591C19.3664 3.25591 19.626 3.27951 19.5552 3.65701L19.5788 4.22326C19.5788 4.22326 19.5316 4.48279 19.9799 4.41201C19.9799 4.41201 20.4282 4.48279 20.4517 4.64795C20.4517 4.64795 20.5933 4.97826 20.0507 4.95467H19.6732V4.97826ZM12.6423 9.88577C12.312 9.86217 12.3356 9.62623 12.3356 9.62623V8.9892C12.3592 8.65889 12.0053 8.58811 12.0053 8.58811C11.5334 8.68248 11.4154 8.39936 11.4154 8.39936C11.3918 8.04545 11.9581 8.09264 11.9581 8.09264C12.4299 8.09264 12.2884 7.66795 12.2884 7.66795L12.312 5.16701C12.2884 4.93107 11.675 4.93107 11.675 4.93107C11.2975 5.00186 11.3918 4.62435 11.3918 4.62435C11.5806 4.4356 11.9817 4.4592 11.9817 4.4592C12.3356 4.48279 12.3356 4.10529 12.3356 4.10529L12.3592 3.42107C12.7367 3.06716 12.8074 3.35029 12.8074 3.35029C12.5951 3.6806 12.6423 4.48279 12.6423 4.48279L12.6187 4.41201C12.6423 4.48279 12.5951 9.15436 12.5951 9.15436C12.6187 9.67342 12.9726 9.55545 12.9726 9.55545L15.1196 9.57905C15.3084 9.57905 15.332 9.72061 15.332 9.72061C15.332 9.88577 15.1904 9.86217 15.1904 9.86217H12.6423V9.88577ZM13.0906 9.15436C13.0906 9.15436 13.0198 9.3903 13.2793 9.34311H14.978L15.4499 9.43748C15.4499 9.43748 15.9218 9.31952 15.4499 9.05998C15.4499 9.05998 13.9399 9.08358 13.7984 9.03639L13.4209 8.94202C13.4209 8.94202 13.2557 8.89483 13.0906 9.15436ZM16.1577 9.22514C16.1577 9.22514 16.2993 9.05998 16.4173 9.05998C16.4173 9.05998 18.0688 9.20155 18.3519 9.0128C18.3519 9.0128 18.6114 8.96561 18.6586 9.0128C18.6586 9.0128 18.8946 9.20154 18.8946 9.31951C18.8946 9.31951 18.871 9.46108 18.5879 9.3903C18.5879 9.3903 16.724 9.41389 16.6296 9.41389C16.6296 9.41389 16.1105 9.53186 16.1577 9.22514ZM12.8546 9.13077C12.831 9.13077 12.7839 9.13077 12.7603 8.94202L12.7839 3.98732C12.7839 3.98732 12.8074 3.37389 13.1378 3.39748C13.1378 3.39748 13.1613 3.72779 13.1613 3.82217C13.1613 3.89295 13.1142 8.6117 13.1142 8.6117C13.1142 8.6117 13.1849 8.94202 12.8546 9.13077ZM19.0833 4.27045L19.0125 8.80045C18.9889 8.96561 18.9654 9.05998 18.9654 9.05998C18.753 9.10717 18.6114 8.6353 18.6114 8.6353L18.635 3.42107C18.9182 3.01998 19.0833 3.82217 19.0833 3.82217V4.27045ZM16.0162 3.49185C16.0162 3.49185 15.969 5.99279 15.9926 6.06358L15.969 8.16342L15.8982 8.89483C15.8982 8.89483 15.9926 9.03639 16.0869 8.94202C16.0869 8.94202 16.606 8.80045 16.9363 8.87123C16.9363 8.87123 17.998 8.96561 18.2104 8.80045C18.2104 8.80045 18.3755 8.89483 18.4227 8.6117C18.4227 8.6117 18.4935 3.98732 18.4463 3.89295C18.4463 3.89295 18.5171 3.23232 18.4699 3.16154C18.4699 3.16154 18.4463 3.01998 18.1632 3.13795C18.1632 3.13795 18.1868 3.27951 16.6296 3.20873C16.6296 3.25592 16.0398 3.23232 16.0162 3.49185ZM13.3973 3.23232L13.3501 8.54092C13.3501 8.54092 13.3265 8.77686 13.7512 8.84764C13.7512 8.84764 14.2231 8.89483 14.341 8.84764C14.341 8.84764 14.6477 8.82405 15.4735 8.87123C15.4735 8.87123 15.6623 9.05998 15.6859 8.82405C15.6859 8.82405 15.8274 4.52998 15.7566 3.63342C15.7566 3.63342 15.733 3.25592 15.4499 3.23232C15.4499 3.23232 14.1995 3.3267 14.0815 3.23232L13.586 3.09076C13.586 3.09076 13.3737 3.09076 13.3973 3.23232Z" fill="white"/>
<path fill-rule="evenodd" clip-rule="evenodd" d="M14.8365 4.88388C15.4971 5.09622 15.4028 5.56809 15.4028 5.56809C15.4499 6.03996 14.9309 6.2523 14.9309 6.2523L14.9073 6.51183L15.3792 7.26682C15.4499 7.3376 15.4499 7.40838 15.4499 7.40838C15.3792 7.59713 15.1196 7.40838 15.1196 7.40838L14.5298 6.48823C14.4826 6.41745 14.3882 6.53542 14.3882 6.53542L14.3646 7.05448L14.5062 7.29041C14.6006 7.43197 14.4354 7.52635 14.4354 7.52635L13.9164 7.47916C13.822 7.43198 13.9164 7.26682 13.9164 7.26682C14.0579 7.19604 14.0579 6.9601 14.0579 6.9601L14.0343 5.99277L14.0579 5.30856C14.0579 5.21419 13.9164 5.07263 13.9164 5.07263C13.7984 5.04903 13.8456 4.90747 13.8456 4.90747C13.8692 4.8131 14.1523 4.88388 14.1523 4.88388H14.8365ZM16.606 5.00185C16.5588 4.86029 16.8892 4.86029 16.8892 4.86029L17.0543 4.88388C17.1723 4.86029 17.2902 4.90747 17.2902 4.90747C17.4082 5.09622 17.1959 5.19059 17.1959 5.19059L17.1251 5.40294C17.1015 5.59168 17.1251 7.14885 17.1251 7.14885C17.1487 7.21963 17.2902 7.38479 17.2902 7.38479C17.2902 7.52635 17.1015 7.50275 17.1015 7.50275L16.6296 7.52635C16.4881 7.50276 16.5353 7.3376 16.5353 7.3376C16.7004 7.26682 16.7476 6.9601 16.7476 6.9601V5.33216L16.606 5.00185ZM14.3882 5.23778C14.4118 5.59168 14.4118 6.08715 14.4118 6.08715C14.7185 6.34667 14.9073 5.99277 14.9073 5.99277C15.3084 5.59168 14.9073 5.23778 14.8365 5.14341C14.7657 5.04903 14.4354 5.11982 14.4354 5.11982L14.3882 5.23778ZM10.9436 12.9528C10.9436 12.9528 11.0615 12.9057 11.0851 12.8113C11.0851 12.8113 11.439 12.7877 11.4862 12.7169L12.5715 12.8113C12.5715 12.8113 13.6568 12.8821 14.1051 12.5518C14.1051 12.5518 14.2703 12.5518 14.3882 12.5989C14.3882 12.5989 14.6242 12.6461 14.695 12.7405L15.332 12.7169C15.332 12.7169 15.6859 12.8349 15.6623 13.0708V13.3775C15.6623 13.3775 15.5915 13.9674 15.7567 14.0146H16.2285C16.2285 14.0146 16.6296 14.2033 16.5824 14.4156C16.5824 14.4156 16.606 14.7459 16.2521 14.8167C16.2521 14.8167 15.8982 14.9111 15.7803 14.9111C15.7803 14.9111 15.6623 15.0527 15.6387 15.2414L15.5915 17.412C15.5915 17.412 15.5679 17.6479 15.8982 17.6008C15.8982 17.6008 16.4173 17.5536 16.5588 17.8367C16.5588 17.8367 16.7004 18.3086 16.4173 18.4029L16.2285 18.4973L15.8039 18.5681C15.8039 18.5681 15.6151 18.5917 15.6151 18.8984V19.4646C15.6151 19.4646 15.6387 19.8657 15.3084 19.8657L14.8365 19.8893C14.8365 19.8893 14.7185 19.9837 14.4826 19.9129C14.4826 19.9129 11.675 19.9601 11.5806 19.9365L11.2503 20.0073C11.2503 20.0073 10.8964 20.3376 10.5897 20.0781L10.3537 19.8893C10.3537 19.8893 10.1886 19.9129 10.1178 19.9129C10.047 19.8893 7.00345 19.9365 7.00345 19.9365C7.00345 19.9365 6.36642 20.0073 6.31923 19.795C6.31923 19.795 6.24845 18.9456 6.27205 18.8512C6.27205 18.8512 6.27205 18.6153 6.13049 18.5917C6.13049 18.5917 5.49346 18.5681 5.46987 18.4973C5.46987 18.4973 5.11596 18.2614 5.21034 18.0018C5.21034 18.0018 5.3283 17.6715 5.68221 17.6479C5.68221 17.6479 6.20127 17.7423 6.20127 17.5772C6.20127 17.5772 6.22486 17.4828 6.22486 17.3176C6.22486 17.3176 6.24845 15.3594 6.24845 15.2178C6.24845 15.2178 6.29564 14.9583 6.0833 14.9583C6.0833 14.9583 5.84736 15.0291 5.7058 14.9347C5.7058 14.9347 5.30471 14.9583 5.23393 14.628C5.23393 14.628 5.16315 14.4392 5.25752 14.2741C5.25752 14.2741 5.44627 13.9202 5.96533 14.0381C5.96533 14.0381 6.27205 14.1325 6.29564 13.8966L6.27205 13.0944C6.27205 13.0944 6.20127 12.8821 6.62595 12.7641C6.62595 12.7641 7.14501 12.9057 7.31017 12.6461C7.31017 12.6461 7.49891 12.2922 7.64048 12.5282C7.64048 12.5282 7.94719 12.8349 8.82015 12.7877C8.82015 12.7877 10.3065 12.6697 10.3301 12.7405C10.3301 12.7405 10.684 12.7877 10.802 12.9057L10.9436 12.9528Z" fill="#231F20"/>
<path fill-rule="evenodd" clip-rule="evenodd" d="M10.8491 19.1338C10.8491 19.1338 11.1322 19.181 11.1322 19.4405C11.1322 19.7001 11.1558 19.8652 10.9906 19.8888C10.8255 19.9124 10.6367 19.8652 10.5895 19.6529C10.5424 19.4641 10.6131 19.181 10.8491 19.1338ZM7.00334 13.1646C7.00334 13.1646 6.81459 13.5185 6.81459 13.6129L6.791 14.7218C6.791 14.7218 6.7674 15.4296 6.791 15.524C6.81459 15.5948 6.7674 17.6946 6.7674 17.6946C6.7674 17.6946 6.74381 18.0957 6.7674 18.2137V19.1102C6.7674 19.1102 6.74381 19.5113 7.02693 19.417C7.02693 19.417 9.92893 19.3462 10.1177 19.3934C10.1177 19.3934 10.3772 19.4405 10.2828 19.5821C10.2828 19.5821 10.2828 19.7001 10.0941 19.6765C10.0941 19.6765 8.72566 19.818 7.47521 19.7473C7.47521 19.7473 6.64944 19.7945 6.60225 19.7001C6.60225 19.7001 6.46069 19.6765 6.46069 19.2046C6.46069 19.2046 6.46069 18.7563 6.43709 18.6855C6.43709 18.6855 6.46069 18.4496 6.0596 18.4024C6.0596 18.4024 5.46976 18.4968 5.46976 18.1665C5.46976 18.1665 5.54054 17.907 6.10679 17.9541C6.10679 17.9541 6.53147 18.0249 6.43709 17.6946L6.48428 15.2409C6.48428 15.2409 6.53147 14.8162 6.24835 14.7926C6.24835 14.7926 5.98882 14.769 5.89444 14.8162C5.89444 14.8162 5.42258 14.8162 5.44617 14.533C5.44617 14.533 5.61132 14.2263 6.08319 14.2971C6.08319 14.2971 6.43709 14.3679 6.46069 13.9432C6.46069 13.9432 6.43709 13.0938 6.64943 13.0702C6.69662 13.0466 7.1213 13.0466 7.00334 13.1646ZM15.0487 13.0466C15.0959 13.023 15.3318 12.9759 15.379 13.0702C15.379 13.0702 15.5206 13.4713 15.4026 13.7073C15.4026 13.7073 15.379 14.1791 15.6149 14.1791C15.6149 14.1791 15.7093 14.2735 15.9217 14.2263C15.9217 14.2263 16.3463 14.2735 16.3463 14.4151C16.3463 14.4151 16.3463 14.7218 16.0396 14.6746L15.6385 14.6982C15.6385 14.6982 15.379 14.7454 15.4026 15.0521C15.4262 15.3588 15.379 17.6238 15.379 17.6238C15.379 17.6238 15.379 17.8834 15.8037 17.8834C15.8037 17.8834 16.3228 17.8598 16.3228 18.0249C16.3228 18.0249 16.4643 18.3552 16.0868 18.3788C16.0868 18.3788 15.4026 18.3552 15.4498 18.5676C15.4498 18.5676 15.4026 19.0395 15.3554 19.1102C15.3554 19.1102 15.4262 19.4877 15.3318 19.5585C15.3318 19.5585 15.2846 19.7709 14.8364 19.7473C14.8364 19.7473 11.9816 19.7237 11.5569 19.7709C11.5569 19.7709 11.2973 19.7473 11.3681 19.5113C11.3681 19.5113 11.5569 19.417 11.6984 19.4405C11.84 19.4641 13.7747 19.417 13.7747 19.417C13.7747 19.417 14.624 19.4877 14.742 19.3698L14.9307 19.299C14.9307 19.299 15.0251 19.2046 15.0251 19.063C15.0251 18.9215 15.0487 18.4732 15.0487 18.4732L15.0959 18.308C15.0959 18.308 15.0723 18.1429 15.0959 13.7309C15.0959 13.7309 15.1667 13.377 14.9543 13.1646C14.9543 13.1646 14.9543 13.023 15.0251 13.0466H15.0487ZM13.7511 18.8507C13.7747 18.8507 14.1522 18.8507 14.2701 18.7091C14.2701 18.7091 14.3881 18.6855 14.4589 18.8035L14.6948 19.063C14.6948 19.063 14.7184 19.2282 14.4353 19.2046C14.3881 19.2046 11.7456 19.2046 11.6512 19.2282C11.6512 19.2282 11.1322 19.299 11.1794 19.0395C11.1794 19.0395 11.4861 18.8507 11.6041 18.8743C11.6041 18.8743 13.114 18.9687 13.5623 18.8979C13.7747 18.8507 13.8218 18.8507 13.8218 18.8507H13.7511ZM7.4988 18.6384C7.4988 18.6384 7.54599 18.6855 7.61677 18.7327C7.71114 18.8035 7.89989 18.8743 8.11223 18.8743L10.3536 18.8979H10.3772C10.3772 18.8979 10.6367 18.9215 10.6131 19.0395C10.6131 19.0395 10.5895 19.2282 10.2828 19.181L7.56958 19.1574L7.28646 19.181C7.28646 19.181 7.09771 19.1574 7.40443 18.7563L7.4988 18.6384ZM7.33365 18.4024C7.33365 18.5204 7.31005 18.7327 7.09771 18.8743C7.09771 18.8743 6.95615 19.063 6.95615 18.7799L7.02693 13.6837C7.02693 13.6837 7.05052 13.3062 7.28646 13.141C7.28646 13.141 7.40442 13.141 7.38083 13.3298L7.33365 18.3316V18.4024ZM14.742 18.8743C14.6476 18.8271 14.4353 18.4496 14.4353 18.4496L14.4589 18.3316L14.4825 13.259C14.4825 12.9995 14.6948 13.1646 14.6948 13.1646L14.8836 13.5185C14.8364 13.778 14.8836 13.9432 14.8836 13.9432L14.86 18.7091C14.9071 19.0395 14.7656 18.8979 14.742 18.8743ZM10.7783 16.161C10.7783 16.161 10.8019 16.5621 10.7547 16.9396C10.7311 17.152 10.8255 18.1193 10.7311 18.6148C10.7311 18.6148 10.7075 18.7799 10.3772 18.6384C10.3772 18.6384 8.25379 18.6855 8.2066 18.6148C8.2066 18.6148 7.61677 18.6384 7.56958 18.3316C7.56958 18.3316 7.64036 16.0666 7.59317 15.9723C7.59317 15.9723 7.56958 14.7218 7.59317 14.6274C7.59317 14.6274 7.64036 13.4949 7.61677 13.3534C7.61677 13.3534 7.64036 13.0938 7.59317 12.9523C7.59317 12.9523 7.59317 12.7871 7.8763 12.8815C7.8763 12.8815 7.97067 13.0702 8.51332 12.9759C8.51332 12.9759 8.91441 13.0466 9.2919 12.9995C9.2919 12.9995 10.1413 12.9287 10.3536 12.9995C10.3536 12.9995 10.6839 12.9287 10.7783 13.3062L10.7547 14.3207L10.8491 14.651L10.967 14.5802L11.0142 14.3207L11.0378 13.2354C11.0378 13.2354 11.1086 13.0466 11.3681 12.9995C11.3681 12.9995 11.7928 12.9523 11.84 12.9759C11.9108 12.9995 12.8073 13.0466 13.0433 12.9995C13.2792 12.9523 13.35 13.1646 14.0814 12.7871C14.0814 12.7871 14.2701 12.8107 14.2701 12.9287C14.2701 12.9287 14.1993 14.3443 14.2701 14.6038C14.2701 14.6038 14.2701 17.1755 14.2229 17.3643L14.2465 18.1901C14.2465 18.1901 14.2701 18.544 13.7039 18.5912C13.7039 18.5912 14.0578 18.6384 11.7928 18.5676C11.7928 18.5676 11.4389 18.544 11.0378 18.7327C11.0378 18.7327 10.967 18.7091 10.967 18.4968C10.967 18.4968 11.0378 17.7182 10.967 16.9632L10.9434 16.1138L10.7783 16.161Z" fill="white"/>
<path fill-rule="evenodd" clip-rule="evenodd" d="M9.29205 14.9819C9.29205 14.9819 9.33924 16.2087 9.29205 16.3739L9.26845 16.6334C9.26845 16.6334 9.33924 16.8222 9.43361 16.8694C9.43361 16.8694 9.52798 17.1053 9.31564 17.0817C9.31564 17.0817 8.91455 17.0581 8.79658 17.0581C8.79658 17.0581 8.56064 17.0581 8.79658 16.7514C8.79658 16.7514 8.86736 16.6334 8.86736 16.3267C8.86736 16.3267 8.86736 14.9347 8.89096 14.8639C8.89096 14.8639 8.91455 14.6752 8.79658 14.628L8.60783 14.6516L8.3719 14.8875C8.3719 14.8875 8.32471 15.147 8.20674 14.8639V14.7224L8.3483 14.3213L8.44268 14.2977C8.44268 14.2977 8.58424 14.392 8.7258 14.4392H9.50439L9.78751 14.2977C9.78751 14.2977 9.90548 14.3213 9.88189 14.4628C9.88189 14.4628 9.92908 14.8403 9.71673 14.8875C9.71673 14.8875 9.57517 14.8403 9.52798 14.6516C9.50439 14.7224 9.29205 14.6044 9.29205 14.9819ZM12.9255 14.5572C12.9255 14.5572 12.2884 14.51 12.2884 15.1942C12.2884 15.1942 12.2177 15.6661 12.9255 15.9492C12.9255 15.9492 13.4445 16.1851 13.3973 16.5155C13.3973 16.5155 13.3266 17.0817 12.7839 16.7986C12.7839 16.7986 12.5244 16.657 12.548 16.5155C12.548 16.5155 12.4536 16.3267 12.3592 16.3739C12.3592 16.3739 12.2413 16.3975 12.2884 16.9637C12.2884 16.9637 12.2884 17.1761 12.5244 16.9637L12.6659 16.9873C12.6659 16.9873 13.1142 17.3412 13.4917 16.893C13.4917 16.893 13.9164 16.5155 13.6097 16.0436C13.6097 16.0436 13.3973 15.7133 13.0198 15.5481C13.0198 15.5481 12.6659 15.383 12.5716 15.0998C12.5716 15.0998 12.6895 14.6044 13.1378 14.8639C13.1378 14.8639 13.303 15.0527 13.3973 15.0998C13.3973 15.0998 13.5389 15.0998 13.4917 14.7931L13.4681 14.5572C13.4681 14.5572 13.4445 14.3685 13.2086 14.5572C13.2086 14.5572 12.9962 14.628 12.9255 14.5572ZM10.92 14.2033C11.038 14.2977 11.0616 14.4628 11.0616 14.4628C11.3919 15.3358 11.675 16.6098 11.675 16.6098C11.7458 16.775 11.9109 16.9165 11.9109 16.9165C12.1941 17.0109 11.9109 17.1053 11.9109 17.1053C11.793 17.1525 11.4155 17.0817 11.4155 17.0817C11.2267 17.0345 11.2975 16.9873 11.2975 16.9873C11.3919 16.9165 11.3211 16.5626 11.3211 16.5626C11.2975 16.4211 11.1559 16.2087 11.1559 16.2087C11.0852 16.1852 10.9672 16.3267 10.9672 16.3267C10.9672 16.3267 10.7784 16.3975 10.7784 16.3267C10.7549 16.2559 10.6369 16.2087 10.6369 16.2087C10.4481 16.2087 10.3538 16.7042 10.3538 16.7042C10.4717 17.1289 10.3538 17.0581 10.3538 17.0581C10.2594 17.1997 9.92908 17.1053 9.92908 17.1053C9.78751 17.0581 9.88189 16.9637 9.88189 16.9637C10.0706 16.9401 10.1178 16.7278 10.1178 16.7278C10.2122 16.6098 10.7313 14.4628 10.7313 14.4628C10.7784 14.3213 10.802 14.1089 10.92 14.2033ZM10.6605 15.2886C10.6369 15.383 10.5189 15.8312 10.5189 15.8312L10.6133 15.9964C10.6133 15.9964 10.8728 16.02 10.9672 16.02C11.0616 16.02 11.0852 15.9492 11.0852 15.8548C11.0852 15.7841 10.8964 15.2886 10.8964 15.2886L10.802 15.1942L10.6605 15.2886ZM6.43722 10.1924C6.43722 10.1924 6.24847 10.7822 5.44629 10.1688L2.66224 10.098C2.66224 10.098 2.30833 10.216 2.23755 9.8385C2.23755 9.8385 2.30833 9.08351 2.26115 9.01273C2.26115 9.01273 2.28474 8.80039 1.90724 8.80039C1.90724 8.80039 1.341 8.87117 1.341 8.3757C1.341 8.3757 1.24662 7.83305 2.02521 7.85665C2.02521 7.85665 2.26115 7.97461 2.28474 7.6679C2.28474 7.6679 2.26115 5.52089 2.26115 5.35574C2.26115 5.35574 2.33193 5.16699 1.95443 5.11981C1.95443 5.11981 1.41178 5.23777 1.341 4.86028C1.341 4.86028 1.3174 4.31763 1.67131 4.27044C1.67131 4.27044 2.11958 4.29403 2.19037 4.19966C2.19037 4.19966 2.28474 4.27044 2.26115 3.86935L2.28474 3.18514C2.28474 3.18514 2.33193 2.99639 2.61505 3.01998C2.61505 3.01998 3.13411 3.04358 3.20489 2.99639C3.20489 2.99639 3.32286 2.85483 3.34645 2.78405C3.34645 2.78405 3.60598 2.76045 3.65317 2.83123C3.65317 2.83123 4.05426 3.09077 5.56425 2.99639C5.56425 2.99639 5.80019 2.99639 5.84738 3.06717C5.84738 3.06717 6.1305 3.27951 6.29566 3.04358C6.29566 3.04358 6.55519 2.99639 7.28659 3.01998C7.28659 3.01998 8.08877 3.23232 8.65502 2.78405L8.84377 2.80764C8.84377 2.80764 9.0797 3.18514 9.24486 3.06717C9.24486 3.06717 9.74033 3.01999 9.8347 3.11436C9.8347 3.11436 9.99986 3.37389 9.90548 4.01091C9.90548 4.01091 9.81111 4.29403 10.283 4.29403C10.283 4.29403 10.8256 4.19966 10.7549 4.69512C10.7549 4.69512 10.8964 5.28496 9.99986 5.19058C9.99986 5.19058 9.88189 5.35574 9.90548 5.47371C9.90548 5.47371 9.88189 7.36119 9.88189 7.57353C9.88189 7.57353 9.85829 7.88024 10.2594 7.85665C10.2594 7.85665 10.7784 7.83306 10.802 8.30493C10.802 8.30493 10.8728 8.94195 10.1178 8.82398C10.1178 8.82398 9.88189 8.84758 9.85829 9.01273L9.8347 9.8385C9.8347 9.8385 9.85829 10.2632 9.38642 10.1452C9.31564 10.1452 6.81472 10.1924 6.60237 10.1216C6.57878 10.1452 6.48441 10.1216 6.43722 10.1924Z" fill="#231F20"/>
<path fill-rule="evenodd" clip-rule="evenodd" d="M3.32281 3.37489C3.32281 3.37489 3.3464 3.70519 3.3464 3.77597C3.3464 3.84675 3.29921 8.56545 3.29921 8.56545C3.29921 8.56545 3.3464 8.91936 3.03969 9.10811C3.03969 9.10811 2.96891 9.1317 2.94531 8.91936L2.96891 3.96472C2.96891 3.96472 2.9925 3.35129 3.32281 3.37489ZM8.79648 3.44567L8.77288 8.65983C8.77288 8.65983 8.91444 9.1317 9.12678 9.08451C9.12678 9.08451 9.15038 8.99014 9.17397 8.82499L9.24475 3.84676C9.24475 3.82316 9.0796 3.04458 8.79648 3.44567Z" fill="#231F20" stroke="#030404" stroke-width="0.0605494"/>
<path fill-rule="evenodd" clip-rule="evenodd" d="M6.03621 9.43642C6.03621 9.43642 5.72949 9.43642 5.72949 9.83751C5.72949 9.83751 5.75308 10.1442 6.08339 10.1442C6.08339 10.1442 6.39011 10.097 6.34292 9.76673C6.36651 9.79033 6.20136 9.36564 6.03621 9.43642ZM9.83475 4.97724C9.83475 4.97724 9.66959 5.07161 9.71678 5.28396L9.66959 7.6905C9.66959 7.6905 9.646 8.11518 10.0235 8.09159C10.0235 8.09159 10.4482 8.06799 10.519 8.20956C10.519 8.20956 10.8021 8.63424 10.1886 8.58705C10.1886 8.58705 9.81115 8.56346 9.71678 8.63424C9.71678 8.63424 9.646 8.72862 9.59881 9.48361C9.59881 9.48361 9.62241 9.95548 9.2921 9.90829C9.2921 9.90829 7.00354 9.93189 6.79119 9.8847C6.79119 9.8847 6.55526 9.95548 6.53167 9.76673C6.53167 9.76673 6.53167 9.62517 6.7676 9.62517L9.07976 9.60158C9.07976 9.60158 9.2921 9.71954 9.2921 9.31845C9.2921 9.31845 9.38647 7.52534 9.38647 5.51989C9.38647 4.93005 9.41006 4.31662 9.38647 3.72678C9.38647 3.72678 9.33928 3.49084 9.2685 3.42006C9.2685 3.42006 9.26851 3.16053 9.55163 3.25491C9.55163 3.25491 9.78756 3.2785 9.74037 3.656L9.76397 4.24584C9.76397 4.24584 9.71678 4.48177 10.1651 4.43459C10.1651 4.43459 10.6133 4.50537 10.6369 4.67052C10.6369 4.67052 10.7785 5.00083 10.2358 4.97724H9.83475ZM2.80391 9.8847C2.4736 9.86111 2.49719 9.62517 2.49719 9.62517V8.98814C2.52079 8.65783 2.16688 8.58705 2.16688 8.58705C1.69502 8.68143 1.57705 8.3983 1.57705 8.3983C1.55345 8.0444 2.1197 8.09159 2.1197 8.09159C2.59157 8.09159 2.45001 7.6669 2.45001 7.6669L2.4736 5.16599C2.45001 4.93005 1.83658 4.93005 1.83658 4.93005C1.45908 5.00083 1.55345 4.62334 1.55345 4.62334C1.7422 4.43459 2.14329 4.45818 2.14329 4.45818C2.49719 4.48177 2.49719 4.10428 2.49719 4.10428L2.52078 3.42006C2.89828 3.06616 2.96906 3.34928 2.96906 3.34928C2.75672 3.67959 2.80391 4.48177 2.80391 4.48177L2.78031 4.41099C2.80391 4.50537 2.75672 9.1533 2.75672 9.1533C2.78031 9.67236 3.13421 9.55439 3.13421 9.55439L5.28122 9.57798C5.46996 9.57798 5.49356 9.71954 5.49356 9.71954C5.49356 9.8847 5.352 9.8611 5.352 9.8611L2.80391 9.8847ZM3.39374 9.38923C3.15781 9.43642 3.20499 9.20048 3.20499 9.20048C3.34656 8.91736 3.51171 8.98814 3.51171 8.98814C3.58249 9.01174 3.8892 9.08252 3.8892 9.08252C4.03076 9.10611 5.54074 9.10611 5.54074 9.10611C6.01261 9.36564 5.54074 9.48361 5.54074 9.48361L5.06888 9.38923H3.39374ZM6.27214 9.27127C6.27214 9.27127 6.4137 9.10611 6.53167 9.10611C6.53167 9.10611 8.18321 9.24767 8.46633 9.05892C8.46633 9.05892 8.72586 9.01174 8.77304 9.05892C8.77304 9.05892 9.03257 9.24767 9.03257 9.36564C9.03257 9.36564 9.00898 9.5072 8.72586 9.43642C8.72586 9.43642 6.86198 9.46001 6.7676 9.46001C6.74401 9.46001 6.22495 9.57798 6.27214 9.27127ZM3.32296 3.37288C3.32296 3.37288 3.34655 3.70318 3.34655 3.77397C3.34655 3.84475 3.29937 8.56346 3.29937 8.56346C3.29937 8.56346 3.34656 8.91736 3.03984 9.10611C3.03984 9.10611 2.96906 9.1297 2.94547 8.91736L2.96906 3.96271C2.96906 3.96271 2.99265 3.34928 3.32296 3.37288ZM8.79664 3.44366L8.77304 8.65784C8.77304 8.65784 8.9146 9.1297 9.12694 9.08252C9.12694 9.08252 9.15054 8.98814 9.17413 8.82299L9.24491 3.84475C9.24491 3.82115 9.07976 3.04257 8.79664 3.44366ZM6.17777 3.46725C6.17777 3.46725 6.13058 5.96817 6.15417 6.03895L6.13058 8.13877L6.0598 8.87018C6.0598 8.87018 6.15417 9.01174 6.24855 8.91736C6.24855 8.91736 6.7676 8.7758 7.09791 8.84658C7.09791 8.84658 8.15961 8.94096 8.37196 8.7758C8.37196 8.7758 8.53711 8.84658 8.5843 8.58705C8.5843 8.58705 8.65508 3.96272 8.60789 3.86834C8.60789 3.86834 8.67867 3.20772 8.63148 3.13694C8.63148 3.13694 8.60789 2.99538 8.32477 3.11335C8.32477 3.11335 8.34836 3.25491 6.79119 3.20772C6.81479 3.23132 6.20136 3.20772 6.17777 3.46725ZM3.5589 3.23132L3.51171 8.53987C3.51171 8.53987 3.48812 8.7758 3.9128 8.84658C3.9128 8.84658 4.38467 8.89377 4.50263 8.84658C4.50263 8.84658 4.80935 8.82299 5.63512 8.87018C5.63512 8.87018 5.82386 9.05892 5.84746 8.82299C5.84746 8.82299 5.98902 4.52896 5.91824 3.63241C5.91824 3.63241 5.89464 3.25491 5.61152 3.23132C5.61152 3.23132 4.36107 3.32569 4.24311 3.23132L3.74764 3.08975C3.74764 3.08975 3.5353 3.08976 3.5589 3.23132Z" fill="white"/>
<path fill-rule="evenodd" clip-rule="evenodd" d="M6.62606 5.26066L6.60247 7.00658L6.55528 7.14814C6.55528 7.14814 6.39013 7.36049 6.5081 7.38408C6.5081 7.38408 6.36654 7.47845 7.5698 7.50205C7.5698 7.50205 8.04166 7.57283 7.92369 6.98299C7.92369 6.98299 7.87651 6.77065 7.71135 7.07736C7.71135 7.07736 7.66417 7.33689 7.07434 7.26611C7.07434 7.26611 6.93278 7.14814 6.93278 7.03018V6.29878C6.93278 6.29878 6.90918 6.11002 7.1923 6.13362C7.1923 6.13362 7.49902 6.32237 7.5462 6.25159C7.5462 6.25159 7.66417 5.99206 7.5462 5.8269C7.5462 5.8269 7.40464 5.80331 7.38105 5.87409C7.38105 5.87409 7.28668 6.06284 7.00356 5.94487C7.00356 5.94487 6.862 5.68534 6.95637 5.473C6.95637 5.473 6.93278 5.04831 7.2159 5.0955C7.2159 5.0955 7.5462 5.16628 7.5698 5.26066C7.5698 5.26066 7.64057 5.44941 7.73495 5.23706L7.64058 4.95394C7.64058 4.95394 7.59339 4.83597 7.49901 4.85957C7.49901 4.85957 6.93278 4.95394 6.862 4.88316L6.41372 4.93035C6.41372 4.93035 6.34294 5.0955 6.55528 5.16628C6.57888 5.16628 6.62606 5.21347 6.62606 5.26066ZM5.65874 5.00113L5.51718 5.30784C5.51718 5.30784 5.16328 6.91221 4.95094 7.24252C4.95094 7.24252 4.92735 7.57283 4.64423 7.3133C4.64423 7.3133 4.00721 5.28425 3.96002 5.21347L3.74768 5.07191C3.74768 5.07191 3.60612 4.88316 3.84206 4.88316L4.45548 4.90675C4.45548 4.90675 4.64423 5.07191 4.3847 5.26066C4.3847 5.26066 4.40829 5.52019 4.76219 6.53471C4.76219 6.53471 4.85657 6.91221 4.97453 6.62909L5.30484 5.44941L5.21047 5.0955C5.21047 5.0955 5.11609 4.93035 5.25765 4.90675C5.28125 4.90675 5.61155 4.88316 5.65874 5.00113Z" fill="#231F20"/>
<path fill-rule="evenodd" clip-rule="evenodd" d="M39.9637 18.2839C39.9637 18.0715 39.8221 17.9064 39.5154 17.8356V17.694L40.3883 17.7176C40.5299 17.7176 41.049 17.694 41.2141 17.694V17.8356C40.931 17.8828 40.7894 18.0479 40.7894 18.2839V21.0915C40.7894 21.988 41.2849 22.4835 42.2994 22.4835C43.1724 22.4835 43.8802 22.0824 43.8802 21.1622V18.2603C43.8802 18.0479 43.7386 17.8828 43.4083 17.812V17.6705C43.5263 17.6705 43.9745 17.694 44.1397 17.694L44.8711 17.6705V17.812C44.5408 17.8828 44.3992 18.0243 44.3992 18.2603V20.9971C44.3992 22.2239 43.6914 22.9317 42.1343 22.9317C40.6951 22.9317 39.9637 22.2711 39.9637 21.115V18.2839ZM46.1216 22.7194C46.4519 22.6486 46.5934 22.4835 46.5934 22.2711V18.3782C46.5934 18.0479 46.4283 17.9064 46.1216 17.812V17.6705C46.2867 17.694 46.5698 17.694 46.7114 17.694C46.853 17.694 47.0417 17.694 47.1833 17.6705L50.5571 21.6341V18.2367C50.5571 18.0243 50.4156 17.8592 50.0853 17.7884V17.6469C50.2032 17.6469 50.6515 17.6705 50.7931 17.6705L51.5245 17.6469V17.7884C51.1942 17.8592 51.0526 18.0008 51.0526 18.2367V22.9081H50.8403C50.7223 22.8845 50.4628 22.743 50.1089 22.3419L47.0889 18.8265V22.2475C47.0889 22.4599 47.2069 22.625 47.5372 22.6958V22.8374C47.4192 22.8374 46.9709 22.8138 46.8294 22.8138L46.1216 22.8374V22.7194ZM72.7586 21.6577H72.9002C72.9709 21.9408 73.1361 22.2239 73.372 22.3655C73.608 22.5306 73.9855 22.625 74.2922 22.625C74.9764 22.625 75.4011 22.2947 75.4011 21.7521C75.4011 21.2094 74.8584 20.9263 74.1978 20.596C73.7023 20.3601 72.735 19.9354 72.735 19.0153C72.735 18.1423 73.3956 17.5997 74.4573 17.5997C75.1651 17.5997 75.4954 17.7648 75.9673 17.7412V18.8029H75.8257C75.637 18.1895 75.0708 17.9536 74.4573 17.9536C73.7731 17.9536 73.5136 18.3547 73.5136 18.7557C73.5136 19.322 74.0798 19.6287 74.7169 19.9118C75.4247 20.2421 76.2032 20.6432 76.2032 21.5397C76.2032 22.3891 75.5426 23.0025 74.3158 23.0025C73.5844 23.0025 73.1597 22.7902 72.7822 22.743L72.7586 21.6577ZM87.2686 20.714L85.9002 18.5198C85.6642 18.1423 85.4755 17.93 85.216 17.8356V17.694C85.4047 17.694 85.9238 17.7176 86.0653 17.7176C86.2069 17.7176 86.7495 17.694 86.9383 17.694V17.8356C86.7731 17.8592 86.6787 17.9536 86.6787 18.0951C86.6787 18.2131 86.7495 18.3547 86.8439 18.4962C86.9147 18.6142 87.8584 20.1713 87.8584 20.1713L88.8257 18.4962C88.9201 18.3311 88.9909 18.1659 88.9909 18.0479C88.9909 17.9536 88.9201 17.8592 88.755 17.8356V17.694C88.9201 17.694 89.274 17.7176 89.3684 17.7176C89.4864 17.7176 89.8875 17.694 90.0526 17.694V17.8356C89.6751 18.0008 89.4392 18.3075 89.2268 18.7085L87.9764 20.8083L87.2686 20.714ZM88.0472 20.5016V22.2711C88.0472 22.4363 88.1887 22.6722 88.4718 22.7194V22.8609L87.5989 22.8374C87.4573 22.8374 86.9383 22.8609 86.7495 22.8609V22.7194C87.0562 22.6722 87.1978 22.4363 87.1978 22.2711V20.596" fill="#231F20"/>
<path fill-rule="evenodd" clip-rule="evenodd" d="M61.717 17.6712H64.9493C65.0436 17.6712 65.2324 17.6712 65.3267 17.624H65.4683L65.4447 18.6621H65.3032C65.1852 18.3318 65.0436 18.0723 64.4302 18.0723H63.0382V19.889H64.1235C64.2886 19.889 64.4774 19.8654 64.5482 19.8654C64.7841 19.8182 64.9021 19.6766 64.9493 19.4643H65.0908C65.0908 19.6295 65.0908 19.9834 65.0908 20.0777C65.0908 20.1957 65.0908 20.5732 65.0908 20.7384H64.9493C64.8785 20.526 64.7841 20.3844 64.5482 20.3137C64.4774 20.2901 64.265 20.2665 64.1235 20.2665H63.0382V22.4135H64.5482C65.2088 22.4135 65.3975 22.1304 65.5627 21.7529L65.7042 21.7765L65.5627 22.8618C65.0672 22.8146 64.7605 22.8146 64.2179 22.8146H62.6135L61.717 22.8382V22.6966C62.0001 22.6494 62.1652 22.5079 62.1652 22.2247V18.261C62.1652 18.0251 62.0237 17.86 61.717 17.8128V17.6712ZM53.4829 18.3082C53.4829 18.0487 53.3177 17.9071 53.011 17.8364V17.6948L53.9075 17.7184C54.0491 17.7184 54.6153 17.6948 54.8041 17.6948V17.8364C54.4974 17.9071 54.3322 18.0251 54.3322 18.3082V22.2483C54.3322 22.5079 54.4974 22.6494 54.8041 22.7202V22.8618L53.9075 22.8382C53.766 22.8382 53.1761 22.8618 53.011 22.8618V22.7202C53.3177 22.6494 53.4829 22.5314 53.4829 22.2483V18.3082ZM77.9492 18.3082C77.9492 18.0487 77.7841 17.9071 77.4774 17.8364V17.6948L78.3739 17.7184C78.5155 17.7184 79.0817 17.6948 79.2705 17.6948V17.8364C78.9637 17.9071 78.7986 18.0251 78.7986 18.3082V22.2483C78.7986 22.5079 78.9637 22.6494 79.2705 22.7202V22.8618L78.3739 22.8382C78.2323 22.8382 77.6425 22.8618 77.4774 22.8618V22.7202C77.7841 22.6494 77.9492 22.5314 77.9492 22.2483V18.3082ZM82.432 17.6948C80.6625 17.6948 80.3793 17.6712 80.0254 17.6476V18.7093H80.167C80.3086 18.2374 80.5681 18.1195 80.8984 18.1195H82.0073V22.2247C82.0073 22.5079 81.8657 22.6494 81.5354 22.6966V22.8382C81.7006 22.8382 82.2904 22.8146 82.432 22.8146L83.3285 22.8382V22.6966C83.0218 22.6258 82.8567 22.4843 82.8567 22.2247V18.1195H83.9655C84.3194 18.1195 84.579 18.2374 84.6969 18.7093H84.8385V17.6476C84.461 17.6712 84.1779 17.6948 82.432 17.6948Z" fill="#231F20"/>
<path fill-rule="evenodd" clip-rule="evenodd" d="M68.3228 22.2481C68.3228 22.5076 68.488 22.6492 68.7947 22.72V22.8615L67.8981 22.8379C67.7566 22.8379 67.2139 22.8615 67.0252 22.8615V22.72C67.3083 22.6728 67.4734 22.5312 67.4734 22.2481V18.2844C67.4734 18.0485 67.3319 17.8834 67.0252 17.8362V17.6946L67.8981 17.7182C68.1577 17.7182 68.8655 17.671 69.1486 17.671C70.3755 17.671 71.0833 18.1901 71.0833 19.063C71.0833 19.7472 70.5642 20.2191 69.7856 20.4078C69.7856 20.4078 69.9744 20.5022 70.1395 20.7145C70.3519 20.9741 70.9417 21.8234 71.2012 22.1065C71.4372 22.4133 71.7675 22.7436 72.0978 22.7436V22.8615C71.9326 22.8851 71.6731 22.9323 71.4843 22.9323C71.0597 22.9323 70.7294 22.7908 70.399 22.3897C70.1159 22.0358 69.6441 21.328 69.3609 20.9741C69.1722 20.7381 68.9598 20.573 68.5588 20.5022C68.488 20.4786 68.4172 20.4786 68.3228 20.4786V22.2481ZM68.3228 20.1247C68.488 20.1483 68.7239 20.1483 68.9598 20.1483C69.9272 20.1483 70.2339 19.5821 70.2339 19.0866C70.2339 18.3788 69.762 17.9541 68.9127 17.9541C68.7475 17.9541 68.488 17.9777 68.2992 18.0013V20.1247H68.3228ZM56.0542 18.3316C55.9362 18.0721 55.7711 17.907 55.4644 17.8362V17.6946C55.6531 17.6946 56.2901 17.7182 56.4317 17.7182C56.5497 17.7182 57.1159 17.6946 57.3046 17.6946V17.8362C57.1395 17.8598 56.9507 17.9541 56.9507 18.1429C56.9507 18.2609 57.0215 18.426 57.1631 18.7563L58.5079 21.7998L59.782 18.7563C59.8763 18.5204 59.9471 18.3316 59.9471 18.1665C59.9471 18.0013 59.8056 17.8834 59.5932 17.8598V17.7182C59.7584 17.7182 60.1831 17.7418 60.301 17.7418C60.419 17.7418 60.8909 17.7182 61.0796 17.7182V17.8598C60.7729 17.9541 60.5841 18.1193 60.3954 18.5204L58.5315 22.9087H58.1068L56.0542 18.3316Z" fill="#231F20"/>
</svg>
