<svg width="120" height="30" viewBox="0 0 120 30" fill="none" xmlns="http://www.w3.org/2000/svg">
<path fill-rule="evenodd" clip-rule="evenodd" d="M38.5793 23.6214L40.059 20.1832C41.6571 21.3783 43.7864 21.9995 45.8873 21.9995C47.438 21.9995 48.4197 21.402 48.4197 20.4962C48.396 17.9638 39.1295 19.9461 39.0583 13.5961C39.0346 10.3713 41.899 7.88632 45.9584 7.88632C48.3723 7.88632 50.7814 8.48385 52.5028 9.8449L51.1181 13.3542C49.5436 12.3489 47.585 11.6328 45.7213 11.6328C44.4551 11.6328 43.6204 12.2303 43.6204 12.9938C43.6442 15.4788 52.9818 14.1177 53.0766 20.1832C53.0766 23.4791 50.2834 25.7981 46.2714 25.7981C43.3312 25.7934 40.6328 25.101 38.5793 23.6214ZM95.3972 18.9407C94.6574 20.2306 93.2726 21.1127 91.6697 21.1127C89.3033 21.1127 87.3969 19.2015 87.3969 16.8398C87.3969 14.4782 89.308 12.567 91.6697 12.567C93.2679 12.567 94.6574 13.4491 95.3972 14.739L99.4803 12.4722C97.9533 9.75005 95.0131 7.88632 91.6697 7.88632C86.7235 7.88632 82.7115 11.8983 82.7115 16.8446C82.7115 21.7908 86.7235 25.8029 91.6697 25.8029C95.0368 25.8029 97.9533 23.9628 99.4803 21.217L95.3972 18.9407ZM55.1301 0.455078H60.2423V25.4614H55.1301V0.455078ZM101.486 0.455078V25.4614H106.599V17.959L112.664 25.4614H119.208L111.493 16.5506L118.635 8.23725H112.375L106.594 15.1373V0.455078H101.486Z" fill="black"/>
<path d="M75.4319 18.9884C74.6921 20.2072 73.1651 21.113 71.4436 21.113C69.0772 21.113 67.1708 19.2018 67.1708 16.8401C67.1708 14.4784 69.0819 12.5673 71.4436 12.5673C73.1651 12.5673 74.6921 13.5205 75.4319 14.763V18.9884ZM75.4319 8.24225V10.272C74.5973 8.8635 72.5201 7.88184 70.3434 7.88184C65.8524 7.88184 62.3193 11.8464 62.3193 16.8164C62.3193 21.7864 65.8524 25.7984 70.3434 25.7984C72.5154 25.7984 74.5925 24.8215 75.4319 23.4083V25.438H80.5442V8.24225H75.4319Z" fill="black"/>
<path fill-rule="evenodd" clip-rule="evenodd" d="M6.98114 18.9642C6.98114 20.7093 5.57267 22.1178 3.82749 22.1178C2.0823 22.1178 0.673828 20.7046 0.673828 18.9642C0.673828 17.2237 2.0823 15.8105 3.82749 15.8105H6.98114V18.9642ZM8.5556 18.9642C8.5556 17.219 9.96408 15.8105 11.7093 15.8105C13.4544 15.8105 14.8629 17.219 14.8629 18.9642V26.846C14.8629 28.5912 13.4544 29.9996 11.7093 29.9996C9.96408 29.9996 8.5556 28.5912 8.5556 26.846V18.9642Z" fill="#E01E5A"/>
<path fill-rule="evenodd" clip-rule="evenodd" d="M11.7093 6.3073C9.96409 6.3073 8.55561 4.89883 8.55561 3.15365C8.55561 1.40847 9.96409 0 11.7093 0C13.4544 0 14.8629 1.40847 14.8629 3.15365V6.3073H11.7093ZM11.7093 7.90547C13.4544 7.90547 14.8629 9.31394 14.8629 11.0591C14.8629 12.8043 13.4544 14.2128 11.7093 14.2128H3.8038C2.05862 14.2128 0.650146 12.7996 0.650146 11.0591C0.650146 9.31868 2.05862 7.90547 3.8038 7.90547H11.7093Z" fill="#36C5F0"/>
<path fill-rule="evenodd" clip-rule="evenodd" d="M24.3427 11.0591C24.3427 9.31394 25.7512 7.90547 27.4964 7.90547C29.2415 7.90547 30.65 9.31394 30.65 11.0591C30.65 12.8043 29.2415 14.2128 27.4964 14.2128H24.3427V11.0591ZM22.7683 11.0591C22.7683 12.8043 21.3598 14.2128 19.6146 14.2128C17.8694 14.2128 16.4609 12.8043 16.4609 11.0591V3.15365C16.4609 1.40847 17.8694 0 19.6146 0C21.3598 0 22.7683 1.40847 22.7683 3.15365V11.0591Z" fill="#2EB67D"/>
<path fill-rule="evenodd" clip-rule="evenodd" d="M19.6146 23.6923C21.3598 23.6923 22.7682 25.1008 22.7682 26.846C22.7682 28.5912 21.3598 29.9996 19.6146 29.9996C17.8694 29.9996 16.4609 28.5912 16.4609 26.846V23.6923H19.6146ZM19.6146 22.1178C17.8694 22.1178 16.4609 20.7093 16.4609 18.9642C16.4609 17.219 17.8694 15.8105 19.6146 15.8105H27.5201C29.2652 15.8105 30.6737 17.219 30.6737 18.9642C30.6737 20.7093 29.2652 22.1178 27.5201 22.1178H19.6146Z" fill="#ECB22E"/>
</svg>
