<svg width="81" height="30" viewBox="0 0 81 30" fill="none" xmlns="http://www.w3.org/2000/svg">
<path d="M13.2948 7.1582L7.10038 3.5791L0.906982 7.1582V3.5791L7.10138 0L13.2958 3.5791V7.1582H13.2948Z" fill="#A435F0"/>
<path d="M4.15217 10.1631V18.0518C4.15217 20.09 5.6731 21.0837 7.10134 21.0837C8.54154 21.0837 10.0515 20.0641 10.0515 18.0249V10.1631H13.2957V18.2402C13.2957 20.118 12.7057 21.5661 11.5266 22.5598C10.3455 23.5525 8.87144 24.0359 7.07343 24.0359C5.27742 24.0359 3.80233 23.5535 2.65017 22.5598C1.49702 21.5671 0.906982 20.1728 0.906982 18.3199V10.1631H4.15217ZM41.3472 19.9675L43.7572 21.3598C42.2871 23.0362 40.3266 24.009 37.8628 24.009C35.7439 24.009 34.0007 23.3651 32.6871 22.1043C31.3734 20.8425 30.7037 19.1512 30.7037 17.0312V16.9256C30.7037 14.7778 31.3734 13.0605 32.6871 11.7459C34.0286 10.4313 35.719 9.7874 37.7831 9.7874C39.7416 9.7874 41.3492 10.4313 42.5821 11.7459C43.8429 13.0605 44.4598 14.6711 44.4598 16.6037C44.4598 17.2266 44.3891 17.8894 44.3891 17.8894H33.906C34.0824 19.9445 35.6432 21.2721 37.9705 21.2721C39.2462 21.2721 40.3655 20.8425 41.3472 19.9675ZM35.1818 13.3834C34.4901 13.9216 34.0924 14.5834 33.9887 15.3688H41.1847C41.1548 14.6093 40.809 13.9485 40.1691 13.4103C39.4974 12.8193 38.72 12.5243 37.7821 12.5243C36.7904 12.5243 35.9043 12.8193 35.1808 13.3824L35.1818 13.3834ZM74.0093 25.8319C72.6937 28.9425 71.3163 30 69.2044 30H67.7402V27.1216H68.9243C69.6509 27.1216 70.3256 26.8485 70.9695 25.3625L71.6133 23.8744L66.0618 10.1631H69.3608L73.3027 20.0382L77.3522 10.1631H80.6502L74.0103 25.8319H74.0093ZM25.9276 4.98541H29.1459V23.6871H25.9276V22.4422C25.194 23.1189 23.8057 23.9821 21.61 23.9821C19.7073 23.9821 18.0977 23.3113 16.7841 21.9688C15.4964 20.6003 14.8535 18.9369 14.8535 16.9236C14.8535 14.9113 15.4964 13.2479 16.7841 11.9053C18.0977 10.5379 19.7063 9.86713 21.61 9.86713C23.2097 9.86713 24.8641 10.4342 25.9276 11.3881V4.98541ZM26.1698 16.9256C26.1698 15.7435 25.7661 14.7508 24.9618 13.9734C24.1844 13.195 23.1927 12.7924 22.0386 12.7924C20.8854 12.7924 19.9475 13.195 19.1701 13.9734C18.4196 14.7508 18.0439 15.7435 18.0439 16.9256C18.0439 18.1057 18.4206 19.0984 19.1701 19.8768C19.9475 20.6552 20.8854 21.0578 22.0386 21.0578C23.1927 21.0578 24.1844 20.6552 24.9618 19.8768C25.7661 19.0984 26.1698 18.1057 26.1698 16.9256ZM61.0595 9.89604C63.8582 9.89604 65.7529 11.7887 65.7529 15.315V23.6871H62.5346V15.7704C62.5346 13.9196 61.6495 12.7655 60.1206 12.7655C58.5389 12.7655 57.4406 14.0542 57.4406 15.905V23.688H54.2492V15.7724C54.2492 13.9206 53.3651 12.7665 51.8352 12.7665C50.3352 12.7665 49.208 14.0811 49.208 15.906V23.688H46.0176V10.1651H49.208V11.5715C49.7771 10.8738 50.9183 9.89504 52.8548 9.89504C55.1452 9.89504 56.1259 11.2226 56.4738 11.8874C57.3449 10.9097 58.6147 9.89504 61.0595 9.89504V9.89604Z" fill="black"/>
</svg>
